<svg xmlns="http://www.w3.org/2000/svg" viewBox="0 0 500 500"><g id="freepik--Floor--inject-84"><path id="freepik--floor--inject-84" d="M96.72,275.61c-84.65,48.87-84.65,128.11,0,177s221.9,48.88,306.55,0,84.65-128.11,0-177S181.37,226.73,96.72,275.61Z" style="fill:#fafafa"></path></g><g id="freepik--Pictures--inject-84"><g id="freepik--Picture--inject-84"><g id="freepik--Frame--inject-84"><polygon points="38.56 153.59 40.9 154.98 88.81 127.32 86.47 125.93 38.56 153.59" style="fill:#fafafa"></polygon><polygon points="86.47 125.93 40.9 152.24 40.9 104.51 86.47 78.22 86.47 125.93" style="fill:#fff"></polygon><path d="M93.22,69.21,36.49,102v60.65l56.72-32.75Zm-4.41,58.11L40.9,155V104.51L88.81,76.85Z" style="fill:#f0f0f0"></path><polygon points="88.81 127.32 86.47 125.93 86.47 78.22 88.81 76.85 88.81 127.32" style="fill:#e0e0e0"></polygon><polygon points="93.22 69.22 90.84 67.86 34.12 100.61 36.49 101.96 93.22 69.22" style="fill:#fafafa"></polygon><polygon points="34.12 100.61 36.49 101.96 36.49 162.61 34.12 161.25 34.12 100.61" style="fill:#e0e0e0"></polygon></g><g id="freepik--Land--inject-84"><polygon points="84.69 124.5 42.68 148.76 42.68 136.63 53.18 112.37 59.73 118.44 57.37 128.6 71.88 97.58 84.69 112.37 84.69 124.5" style="fill:#f0f0f0"></polygon><path d="M59.33,100.66A6.86,6.86,0,0,0,56.22,106c0,2,1.39,2.79,3.11,1.79a6.86,6.86,0,0,0,3.11-5.38C62.44,100.47,61.05,99.67,59.33,100.66Z" style="fill:#f0f0f0"></path></g></g><g id="freepik--picture--inject-84"><g id="freepik--frame--inject-84"><polygon points="38.56 230.51 40.9 231.9 88.81 204.24 86.47 202.85 38.56 230.51" style="fill:#fafafa"></polygon><polygon points="86.47 202.85 40.9 229.16 40.9 181.43 86.47 155.14 86.47 202.85" style="fill:#fff"></polygon><path d="M93.22,146.14,36.49,178.89v60.64l56.73-32.75Zm-4.41,58.1L40.9,231.9V181.43l47.91-27.66Z" style="fill:#f0f0f0"></path><polygon points="88.81 204.24 86.47 202.85 86.47 155.14 88.81 153.77 88.81 204.24" style="fill:#e0e0e0"></polygon><polygon points="93.22 146.14 90.84 144.78 34.12 177.53 36.49 178.89 93.22 146.14" style="fill:#fafafa"></polygon><polygon points="34.12 177.53 36.49 178.89 36.49 239.53 34.12 238.18 34.12 177.53" style="fill:#e0e0e0"></polygon></g><g id="freepik--land--inject-84"><polygon points="84.69 201.42 42.68 225.68 42.68 213.55 53.18 189.29 59.73 195.36 57.37 205.53 71.88 174.5 84.69 189.29 84.69 201.42" style="fill:#f0f0f0"></polygon><path d="M59.33,177.58A6.86,6.86,0,0,0,56.22,183c0,2,1.39,2.79,3.11,1.8a6.86,6.86,0,0,0,3.11-5.39C62.44,177.39,61.05,176.59,59.33,177.58Z" style="fill:#f0f0f0"></path></g></g></g><g id="freepik--Window--inject-84"><g id="freepik--window--inject-84"><g id="freepik--window--inject-84"><g id="freepik--frame--inject-84"><polygon points="315.06 39.47 311.33 41.55 311.33 201.26 315.06 199.18 315.06 39.47" style="fill:#fafafa"></polygon><polygon points="315.06 199.18 315.07 43.71 464.78 130.15 464.75 285.6 315.06 199.18" style="fill:#fff"></polygon><path d="M471.7,301.84V126.15L304.41,29.57V205.26ZM311.33,201.26V41.55l153.45,88.6v159.7Z" style="fill:#f0f0f0"></path><polygon points="311.33 201.26 315.06 199.18 464.75 285.6 464.78 289.85 311.33 201.26" style="fill:#e0e0e0"></polygon><polygon points="353.12 65.68 349.4 63.53 349.4 223.24 353.13 221.16 353.12 65.68" style="fill:#fafafa"></polygon><polygon points="437.22 114.23 433.49 112.08 433.49 271.79 437.22 269.71 437.22 114.23" style="fill:#fafafa"></polygon><polygon points="471.7 301.84 475.41 299.68 475.41 123.99 471.7 126.15 471.7 301.84" style="fill:#e0e0e0"></polygon><polygon points="475.41 123.99 471.7 126.15 304.41 29.57 308.12 27.41 475.41 123.99" style="fill:#fafafa"></polygon><polygon points="464.78 201.78 464.78 206.08 311.32 117.48 315.03 115.32 464.78 201.78" style="fill:#e0e0e0"></polygon></g><polygon points="464.76 214.06 464.78 206.08 311.32 117.48 311.33 125.48 464.76 214.06" style="fill:#f0f0f0"></polygon><polygon points="433.49 279.78 426.58 275.79 426.58 100.1 433.49 104.09 433.49 279.78" style="fill:#f0f0f0"></polygon><polygon points="349.41 231.24 342.5 227.25 342.5 51.55 349.41 55.55 349.41 231.24" style="fill:#f0f0f0"></polygon><polygon points="433.49 188.01 437.22 185.87 437.22 114.23 433.49 112.08 433.49 188.01" style="fill:#fafafa"></polygon><polygon points="349.43 139.48 353.16 137.34 353.16 65.7 349.43 63.55 349.43 139.48" style="fill:#fafafa"></polygon></g></g></g><g id="freepik--shadow-2--inject-84"><polygon id="freepik--Shadow--inject-84" points="300.65 239.59 452.68 327.57 201.14 472.9 49.25 384.93 300.65 239.59" style="fill:#e0e0e0"></polygon></g><g id="freepik--Carpet--inject-84"><g id="freepik--carpet--inject-84"><g id="freepik--carpet--inject-84"><g id="freepik--carpet--inject-84"><polygon points="293.44 242.21 439.12 326.52 205.92 460.8 60.37 376.5 293.44 242.21" style="fill:#BA68C8"></polygon><polygon points="293.44 242.21 439.12 326.52 205.92 460.8 60.37 376.5 293.44 242.21" style="fill:#fff;opacity:0.7000000000000001"></polygon><path d="M206.05,461.77a.89.89,0,0,1-.45-.12L59.92,377.54a.9.9,0,0,1,0-1.55L293,241.43a.86.86,0,0,1,.9,0l145.67,84.1a.88.88,0,0,1,.45.77.9.9,0,0,1-.45.78L206.5,461.65A.92.92,0,0,1,206.05,461.77Zm-143.89-85,143.89,83.08L437.33,326.3,293.45,243.24Z" style="fill:#fff"></path><path d="M293.45,243.1a.87.87,0,0,1-.77-.45.88.88,0,0,1,.32-1.22l6.41-3.71a.9.9,0,0,1,1.23.33.89.89,0,0,1-.33,1.22L293.9,243A.92.92,0,0,1,293.45,243.1Z" style="fill:#fff"></path><path d="M301.56,247.76a.91.91,0,0,1-.78-.44.9.9,0,0,1,.33-1.23l6.41-3.7a.9.9,0,0,1,.9,1.55l-6.41,3.7A.85.85,0,0,1,301.56,247.76Z" style="fill:#fff"></path><path d="M309.66,252.43a.87.87,0,0,1-.77-.45.89.89,0,0,1,.32-1.22l6.41-3.71a.9.9,0,0,1,1.23.33.89.89,0,0,1-.33,1.22l-6.41,3.71A.92.92,0,0,1,309.66,252.43Z" style="fill:#fff"></path><path d="M317.77,257.1a.91.91,0,0,1-.78-.45.9.9,0,0,1,.33-1.23l6.41-3.7A.88.88,0,0,1,325,252a.9.9,0,0,1-.32,1.23l-6.42,3.7A.8.8,0,0,1,317.77,257.1Z" style="fill:#fff"></path><path d="M325.87,261.76a.89.89,0,0,1-.45-1.67l6.41-3.71a.9.9,0,1,1,.9,1.55l-6.41,3.71A.92.92,0,0,1,325.87,261.76Z" style="fill:#fff"></path><path d="M334,266.43a.87.87,0,0,1-.77-.45.89.89,0,0,1,.32-1.22l6.42-3.71a.88.88,0,0,1,1.22.32.91.91,0,0,1-.32,1.23l-6.42,3.71A.89.89,0,0,1,334,266.43Z" style="fill:#fff"></path><path d="M342.08,271.09a.89.89,0,0,1-.45-1.67l6.41-3.71a.9.9,0,1,1,.9,1.56l-6.41,3.7A.82.82,0,0,1,342.08,271.09Z" style="fill:#fff"></path><path d="M350.18,275.76a.87.87,0,0,1-.77-.45.89.89,0,0,1,.32-1.22l6.42-3.71a.9.9,0,0,1,.9,1.55l-6.42,3.71A.89.89,0,0,1,350.18,275.76Z" style="fill:#fff"></path><path d="M358.29,280.42a.89.89,0,0,1-.45-1.67l6.41-3.7a.9.9,0,1,1,.9,1.55l-6.42,3.7A.79.79,0,0,1,358.29,280.42Z" style="fill:#fff"></path><path d="M366.39,285.09a.89.89,0,0,1-.45-1.67l6.42-3.71a.89.89,0,1,1,.89,1.55L366.84,285A.92.92,0,0,1,366.39,285.09Z" style="fill:#fff"></path><path d="M374.49,289.76a.9.9,0,0,1-.44-1.68l6.41-3.7a.9.9,0,0,1,.9,1.55l-6.42,3.7A.81.81,0,0,1,374.49,289.76Z" style="fill:#fff"></path><path d="M382.6,294.42a.89.89,0,0,1-.45-1.67l6.41-3.71a.91.91,0,0,1,1.23.33.89.89,0,0,1-.33,1.22l-6.41,3.71A.92.92,0,0,1,382.6,294.42Z" style="fill:#fff"></path><path d="M390.7,299.09a.87.87,0,0,1-.77-.45.89.89,0,0,1,.32-1.22l6.42-3.71a.9.9,0,0,1,.9,1.55L391.15,299A.89.89,0,0,1,390.7,299.09Z" style="fill:#fff"></path><path d="M398.81,303.75a.89.89,0,0,1-.45-1.67l6.41-3.71a.9.9,0,0,1,.9,1.56l-6.41,3.7A.82.82,0,0,1,398.81,303.75Z" style="fill:#fff"></path><path d="M406.91,308.42a.87.87,0,0,1-.77-.45.89.89,0,0,1,.32-1.22l6.42-3.71a.9.9,0,0,1,.9,1.55l-6.42,3.71A.89.89,0,0,1,406.91,308.42Z" style="fill:#fff"></path><path d="M415,313.08a.89.89,0,0,1-.45-1.67l6.41-3.7a.9.9,0,1,1,.9,1.55l-6.41,3.7A.85.85,0,0,1,415,313.08Z" style="fill:#fff"></path><path d="M423.12,317.75a.87.87,0,0,1-.77-.45.89.89,0,0,1,.32-1.22l6.42-3.71a.9.9,0,0,1,.9,1.55l-6.42,3.71A.92.92,0,0,1,423.12,317.75Z" style="fill:#fff"></path><path d="M431.23,322.42a.9.9,0,0,1-.45-1.68l6.41-3.7a.9.9,0,0,1,1.23.33.89.89,0,0,1-.33,1.22l-6.41,3.71A1,1,0,0,1,431.23,322.42Z" style="fill:#fff"></path><path d="M439.33,327.08a.89.89,0,0,1-.77-.44.9.9,0,0,1,.32-1.23l6.42-3.71a.9.9,0,0,1,.9,1.55L439.78,327A.82.82,0,0,1,439.33,327.08Z" style="fill:#fff"></path><path d="M53.87,381.42a.87.87,0,0,1-.77-.45.89.89,0,0,1,.32-1.22L59.84,376a.89.89,0,0,1,1.22.32.91.91,0,0,1-.32,1.23l-6.42,3.71A.89.89,0,0,1,53.87,381.42Z" style="fill:#fff"></path><path d="M62,386.08a.89.89,0,0,1-.45-1.67l6.41-3.7a.9.9,0,0,1,1.23.32.91.91,0,0,1-.33,1.23L62.43,386A.82.82,0,0,1,62,386.08Z" style="fill:#fff"></path><path d="M70.08,390.75a.87.87,0,0,1-.77-.45.9.9,0,0,1,.32-1.22l6.42-3.71a.89.89,0,1,1,.89,1.55l-6.41,3.71A.89.89,0,0,1,70.08,390.75Z" style="fill:#fff"></path><path d="M78.19,395.41a.91.91,0,0,1-.78-.44.9.9,0,0,1,.33-1.23l6.41-3.7a.88.88,0,0,1,1.22.32.9.9,0,0,1-.32,1.23l-6.41,3.7A.85.85,0,0,1,78.19,395.41Z" style="fill:#fff"></path><path d="M86.29,400.08a.87.87,0,0,1-.77-.45.89.89,0,0,1,.32-1.22l6.41-3.71a.9.9,0,0,1,1.23.33.89.89,0,0,1-.33,1.22L86.74,400A.92.92,0,0,1,86.29,400.08Z" style="fill:#fff"></path><path d="M94.39,404.75a.87.87,0,0,1-.77-.45.89.89,0,0,1,.32-1.22l6.42-3.71a.9.9,0,0,1,.9,1.55l-6.42,3.71A.89.89,0,0,1,94.39,404.75Z" style="fill:#fff"></path><path d="M102.5,409.41a.89.89,0,0,1-.45-1.67l6.41-3.7a.9.9,0,1,1,.9,1.55l-6.41,3.7A.82.82,0,0,1,102.5,409.41Z" style="fill:#fff"></path><path d="M110.6,414.08a.87.87,0,0,1-.77-.45.89.89,0,0,1,.32-1.22l6.42-3.71a.9.9,0,0,1,.9,1.55L111.05,414A.89.89,0,0,1,110.6,414.08Z" style="fill:#fff"></path><path d="M118.71,418.75a.92.92,0,0,1-.78-.45.9.9,0,0,1,.33-1.23l6.41-3.7a.9.9,0,1,1,.9,1.55l-6.41,3.7A.86.86,0,0,1,118.71,418.75Z" style="fill:#fff"></path><path d="M126.81,423.41A.87.87,0,0,1,126,423a.89.89,0,0,1,.32-1.22l6.42-3.71a.9.9,0,0,1,.9,1.55l-6.42,3.71A.92.92,0,0,1,126.81,423.41Z" style="fill:#fff"></path><path d="M134.92,428.07a.91.91,0,0,1-.78-.44.9.9,0,0,1,.33-1.23l6.41-3.7a.9.9,0,1,1,.9,1.55l-6.41,3.7A.85.85,0,0,1,134.92,428.07Z" style="fill:#fff"></path><path d="M143,432.74a.87.87,0,0,1-.77-.45.88.88,0,0,1,.32-1.22l6.42-3.71a.9.9,0,0,1,.9,1.55l-6.42,3.71A.92.92,0,0,1,143,432.74Z" style="fill:#fff"></path><path d="M151.13,437.41a.9.9,0,0,1-.78-.45.89.89,0,0,1,.33-1.22l6.41-3.71a.9.9,0,1,1,.9,1.55l-6.41,3.71A1,1,0,0,1,151.13,437.41Z" style="fill:#fff"></path><path d="M159.23,442.07a.89.89,0,0,1-.77-.44.9.9,0,0,1,.32-1.23l6.42-3.7a.88.88,0,0,1,1.22.32.91.91,0,0,1-.32,1.23l-6.42,3.7A.82.82,0,0,1,159.23,442.07Z" style="fill:#fff"></path><path d="M167.34,446.74a.9.9,0,0,1-.78-.45.89.89,0,0,1,.33-1.22l6.41-3.71a.9.9,0,1,1,.9,1.55l-6.41,3.71A1,1,0,0,1,167.34,446.74Z" style="fill:#fff"></path><path d="M175.44,451.41a.9.9,0,0,1-.45-1.68l6.42-3.7a.88.88,0,0,1,1.22.32.91.91,0,0,1-.32,1.23l-6.42,3.7A.84.84,0,0,1,175.44,451.41Z" style="fill:#fff"></path><path d="M183.55,456.07a.89.89,0,0,1-.45-1.67l6.41-3.71a.9.9,0,1,1,.9,1.55L184,456A.88.88,0,0,1,183.55,456.07Z" style="fill:#fff"></path><path d="M191.65,460.73a.89.89,0,0,1-.45-1.67l6.42-3.7a.88.88,0,0,1,1.22.32.9.9,0,0,1-.33,1.23l-6.41,3.7A.82.82,0,0,1,191.65,460.73Z" style="fill:#fff"></path><path d="M199.75,465.4A.87.87,0,0,1,199,465a.89.89,0,0,1,.33-1.22l6.41-3.7a.88.88,0,0,1,1.22.32.9.9,0,0,1-.32,1.23l-6.42,3.7A.89.89,0,0,1,199.75,465.4Z" style="fill:#fff"></path><path d="M235.18,444.94a.82.82,0,0,1-.45-.12L89.06,360.72a.9.9,0,1,1,.9-1.55l145.67,84.1a.9.9,0,0,1,.32,1.23A.89.89,0,0,1,235.18,444.94Z" style="fill:#fff"></path><path d="M264.31,428.12a.82.82,0,0,1-.45-.12L118.19,343.9a.9.9,0,1,1,.9-1.55l145.67,84.1a.9.9,0,0,1,.32,1.23A.89.89,0,0,1,264.31,428.12Z" style="fill:#fff"></path><path d="M293.44,411.3a.92.92,0,0,1-.45-.12l-145.67-84.1a.9.9,0,0,1-.32-1.23.88.88,0,0,1,1.22-.32l145.67,84.1a.89.89,0,0,1,.33,1.22A.9.9,0,0,1,293.44,411.3Z" style="fill:#fff"></path><path d="M322.57,394.48a1,1,0,0,1-.45-.12L176.45,310.25a.9.9,0,0,1,.9-1.55L323,392.81a.89.89,0,0,1,.33,1.22A.9.9,0,0,1,322.57,394.48Z" style="fill:#fff"></path><path d="M351.71,377.66a.89.89,0,0,1-.45-.12L205.59,293.43a.89.89,0,0,1-.33-1.22.9.9,0,0,1,1.23-.33L352.16,376a.89.89,0,0,1,.32,1.22A.87.87,0,0,1,351.71,377.66Z" style="fill:#fff"></path><path d="M380.84,360.83a.82.82,0,0,1-.45-.12l-145.67-84.1a.9.9,0,1,1,.9-1.55l145.67,84.1a.9.9,0,0,1,.32,1.23A.89.89,0,0,1,380.84,360.83Z" style="fill:#fff"></path><path d="M410,344a.92.92,0,0,1-.45-.12l-145.67-84.1a.9.9,0,0,1,.9-1.55l145.67,84.1A.89.89,0,0,1,410,344Z" style="fill:#fff"></path><path d="M176.91,445a.92.92,0,0,1-.63-.26.91.91,0,0,1-.27-.64V411.49l-42.61,8.2a.91.91,0,0,1-.74-.19.88.88,0,0,1-.33-.69l0-32.54-42.63,8.2a.89.89,0,0,1-.74-.18.91.91,0,0,1-.32-.7V359.94a.9.9,0,1,1,1.79,0v32.57l42.63-8.2a.9.9,0,0,1,1.07.88l0,32.53,42.61-8.2a.91.91,0,0,1,.74.19.9.9,0,0,1,.33.69v32.76l57.37-.07h0a.9.9,0,0,1,0,1.8l-58.27.06Z" style="fill:#fff"></path><path d="M235.19,411.3a.9.9,0,0,1-.64-.26.88.88,0,0,1-.26-.63V377.85l-42.61,8.2a.92.92,0,0,1-.74-.19.9.9,0,0,1-.32-.69l0-32.54-42.63,8.2a.89.89,0,0,1-1.07-.88V326.3a.9.9,0,1,1,1.79,0v32.57l42.63-8.21a.91.91,0,0,1,.74.19.9.9,0,0,1,.33.7l0,32.53,42.61-8.2a.9.9,0,0,1,1.07.88v32.75l57.37-.06h0a.9.9,0,1,1,0,1.8l-58.26.05Z" style="fill:#fff"></path><path d="M293.46,377.66a.89.89,0,0,1-.89-.89V344.21L250,352.4a.85.85,0,0,1-.74-.19.88.88,0,0,1-.33-.69l0-32.53-42.62,8.2a.91.91,0,0,1-.74-.19.88.88,0,0,1-.33-.69V292.65a.9.9,0,0,1,1.79,0v32.58L249.57,317a.91.91,0,0,1,.74.19.9.9,0,0,1,.33.69l0,32.54,42.61-8.2a.91.91,0,0,1,.74.19.88.88,0,0,1,.33.69v32.75l57.37-.06h0a.9.9,0,1,1,0,1.79l-58.27.06Z" style="fill:#fff"></path><path d="M351.74,344a.88.88,0,0,1-.63-.26.91.91,0,0,1-.27-.64V310.56l-42.6,8.2a.89.89,0,0,1-1.07-.88l0-32.53-42.63,8.2a.91.91,0,0,1-.74-.19.88.88,0,0,1-.33-.69V259a.9.9,0,0,1,1.8,0v32.58l42.63-8.21a.89.89,0,0,1,.74.19.87.87,0,0,1,.32.69l0,32.54,42.61-8.2a.9.9,0,0,1,1.07.88v32.75l57.37-.06h0a.9.9,0,0,1,0,1.79l-58.27.06Z" style="fill:#fff"></path></g></g></g></g><g id="freepik--shadows-1--inject-84"><ellipse id="freepik--shadow--inject-84" cx="220.23" cy="354.86" rx="78.17" ry="45.13" style="opacity:0.2"></ellipse><path id="freepik--shadow--inject-84" d="M144.4,398.92c-14-8.08-36.7-8.08-50.7,0s-14,21.19,0,29.27,36.7,8.09,50.7,0S158.4,407,144.4,398.92Z" style="opacity:0.2"></path></g><g id="freepik--Cushions--inject-84"><g id="freepik--Cushion--inject-84"><path d="M167.71,235.15c-6.47-1.55-12.94,5.28-24.61,9.14-21.74,7.19-32.15,15-43.16,24.77S85.61,276.47,81.77,283s3.77,10.55,6.26,20.85c4.19,17.36,10.69,29.53,18.09,37.54,13.07,14.13,9.67,22.27,16.38,23.11,7.14.89,7.46-5.31,19.27-8.13,27.93-6.69,40.07-14.38,54.81-30.85,5.75-6.43,11.77-5,13.86-11.68,1.05-3.35-3.68-5.86-6.71-17.21-5-18.86-14.65-37.23-25.08-47.51C174.1,244.61,174.3,236.73,167.71,235.15Z" style="fill:#BA68C8"></path><path d="M167.71,235.15c-6.47-1.55-12.94,5.28-24.61,9.14-21.74,7.19-32.15,15-43.16,24.77S85.61,276.47,81.77,283s3.77,10.55,6.26,20.85c4.19,17.36,10.69,29.53,18.09,37.54,13.07,14.13,9.67,22.27,16.38,23.11,7.14.89,7.46-5.31,19.27-8.13,27.93-6.69,40.07-14.38,54.81-30.85,5.75-6.43,11.77-5,13.86-11.68,1.05-3.35-3.68-5.86-6.71-17.21-5-18.86-14.65-37.23-25.08-47.51C174.1,244.61,174.3,236.73,167.71,235.15Z" style="opacity:0.30000000000000004"></path><path d="M87.42,295.44c4.52,8.71,2.69,16.53,12.23,32.7,9.15,15.54,16.63,20.57,19.09,27.32,2,5.6,5.47,8.56,7.21,2.57s-.69-24.15-9.8-40.64c-10.5-19-17.79-26.71-23-30C85,282.24,83.86,288.59,87.42,295.44Z" style="opacity:0.2"></path><path d="M143.13,349.66c-7.66,1.53-8.86,8-13.22,12.49a29.26,29.26,0,0,1,11.86-5.81c12.72-3,22.17-6.3,30.08-10.5C161.8,349.49,148.7,348.55,143.13,349.66Zm50.42-27.38c-5.11,3.56-5.67,11.06-12.11,17.48a103.26,103.26,0,0,0,15.14-14.27c5.25-5.87,10.72-5.21,13.22-10.13C205.09,319.89,199.7,318,193.55,322.28Z" style="opacity:0.2"></path><path d="M156.43,249.7c-16,.79-32.74,6.71-45.12,17.27a12.54,12.54,0,0,0-4.1,8.67,12.31,12.31,0,0,0,5,10.75c3.39,2.57,8.76,3.31,12.67,3.34,8.22.07,13.27-1.4,23.75-.14a24.31,24.31,0,0,1,10.64,4.3c4.77,3.57,8.18,7.34,12.36,10.37,5.77,4.18,17,4.17,21.38.85,4.66-3.54,6.42-9.57,3.8-17.79C191,269.05,178.06,250.27,156.43,249.7Z" style="fill:#BA68C8;opacity:0.30000000000000004"></path></g><g id="freepik--cushion--inject-84"><path d="M201.71,240.83c5.09-4.17,13.77-.89,25.81-2.49,22.42-3,40.78-1,54.76,2.89s15.93.41,22.15,4.53,1.19,11,3.42,21.23c3.75,17.23,3.22,30.85.1,41.15-5.52,18.19,1,24-4.59,27.59-6,3.87-8.92-1.49-20.63,1.09-27.7,6.09-47.55,5-67.73-3.27-7.89-3.24-12.62.62-17.36-4.41-2.37-2.52.74-6.8-1.46-18.19-3.66-18.92-3-39.39,1.82-53C200.11,252,196.54,245.07,201.71,240.83Z" style="fill:#BA68C8"></path><path d="M201.71,240.83c5.09-4.17,13.77-.89,25.81-2.49,22.42-3,40.78-1,54.76,2.89s15.93.41,22.15,4.53,1.19,11,3.42,21.23c3.75,17.23,3.22,30.85.1,41.15-5.52,18.19,1,24-4.59,27.59-6,3.87-8.92-1.49-20.63,1.09-27.7,6.09-47.55,5-67.73-3.27-7.89-3.24-12.62.62-17.36-4.41-2.37-2.52.74-6.8-1.46-18.19-3.66-18.92-3-39.39,1.82-53C200.11,252,196.54,245.07,201.71,240.83Z" style="opacity:0.30000000000000004"></path><path d="M304.78,259.28c-.26,9.68,4.73,15.85,3.23,34.33-1.45,17.75-5.92,25.44-5.2,32.5.6,5.86-1.17,10-5.29,5.39s-9.8-21.75-8.81-40.33c1.14-21.4,4.3-31.4,7.5-36.56C301.24,246.51,305,251.66,304.78,259.28Z" style="opacity:0.2"></path><path d="M251.48,340.44c8.83.33,18.63-.85,31.25-3.62a28.77,28.77,0,0,1,13,0c-5.82-2.13-9.66-7.34-17.13-5.39C273.21,332.88,262,339.37,251.48,340.44Zm-52.6-10.2c4.34,3.3,8.92.35,16.12,3.31a102.73,102.73,0,0,0,19.59,6.16c-8.49-2.94-12.22-9.36-18.29-10.32C209,328.23,205,332.24,198.88,330.24Z" style="opacity:0.2"></path><path d="M218,248.9c14.57-6.2,34.93-9.4,50.48-5.35,3,.9,8.61,3.71,10.17,6.66a12.13,12.13,0,0,1,.22,11.69c-1.9,3.75-6.35,6.72-9.81,8.43-7.28,3.6-15.22,4-24.67,9.17-2.7,1.47-8,6.37-9.84,9.87-2.7,5.23-4.1,10-6.52,14.55-3.32,6.2-13.32,11-18.63,10-5.66-1.14-9.82-5.74-11-14.17C195.66,281,199,258.72,218,248.9Z" style="fill:#BA68C8;opacity:0.30000000000000004"></path></g></g><g id="freepik--Coffee--inject-84"><g id="freepik--coffee--inject-84"><g id="freepik--Mug--inject-84"><g id="freepik--Plate--inject-84"><path d="M143.41,396.16c-13.45-7.76-35.26-7.76-48.72,0-6.72,3.89-10.09,9-10.08,14.07v1.44c0,5.09,3.36,10.18,10.08,14.06,13.46,7.77,35.27,7.77,48.72,0,6.73-3.88,10.09-9,10.09-14.06v-1.43C153.51,405.15,150.15,400.05,143.41,396.16Z" style="fill:#f0f0f0"></path><path d="M107.62,429V391.46a43.51,43.51,0,0,0-12.93,4.7c-6.72,3.89-10.09,9-10.08,14.07v1.44c0,5.09,3.36,10.18,10.08,14.06a45.14,45.14,0,0,0,15.8,5.21C107.77,430.46,107.62,429,107.62,429Z" style="opacity:0.1"></path><path d="M143.41,396.16c-13.45-7.76-35.26-7.76-48.72,0s-13.45,20.36,0,28.13,35.27,7.77,48.72,0S156.87,403.93,143.41,396.16Z" style="fill:#fff"></path><path d="M136.9,400.65c-9.86-5.69-25.83-5.69-35.69,0s-9.85,14.91,0,20.6,25.83,5.69,35.69,0S146.75,406.34,136.9,400.65Z" style="fill:#f0f0f0"></path><path d="M134.69,402.9c-8.64-5-22.63-5-31.27,0s-8.63,13.07,0,18.06,22.63,5,31.27,0S143.32,407.89,134.69,402.9Z" style="fill:#fff"></path><path d="M94.49,423.15a41.41,41.41,0,0,0,9.05,3.42,54.75,54.75,0,0,0,9.52,1.53,62.17,62.17,0,0,0,9.65,0,58.62,58.62,0,0,0,9.5-1.55,42.62,42.62,0,0,0,9-3.32,24.28,24.28,0,0,0,7.55-5.76,14,14,0,0,0,2.43-4.05,11,11,0,0,0,.7-4.66,11.9,11.9,0,0,0-1.28-4.57,14.89,14.89,0,0,0-1.27-2.05,17.28,17.28,0,0,0-1.55-1.87,18.61,18.61,0,0,1,1.66,1.78,15.26,15.26,0,0,1,1.37,2,12.07,12.07,0,0,1,1.52,4.66,11.3,11.3,0,0,1-.59,4.89,14.57,14.57,0,0,1-2.43,4.31,20.58,20.58,0,0,1-3.56,3.42,28.55,28.55,0,0,1-4.15,2.64,42,42,0,0,1-9.18,3.43A58.26,58.26,0,0,1,113,428.8a52,52,0,0,1-9.59-1.81,45.49,45.49,0,0,1-4.59-1.64A34.64,34.64,0,0,1,94.49,423.15Z" style="fill:#fff"></path><path d="M131.46,403.3c-6.85-4-18-4-24.81,0s-6.85,10.37,0,14.32,18,4,24.81,0S138.31,407.26,131.46,403.3Z" style="fill:#f0f0f0"></path></g><g id="freepik--mug--inject-84"><path d="M83.45,395.59c0,5.3,5.08,8,9,9.66,2.94,1.24,5.17,1.65,6.7,2.91-.14-.73-3.51-18.65-3.51-18.65a8.24,8.24,0,0,0-4.72-1.23,6.13,6.13,0,0,0-2.87.8l-1.82,1.05C84.73,391,83.45,392.65,83.45,395.59Zm5.19-1a3.23,3.23,0,0,1,.78-2.06,3.86,3.86,0,0,1,.61-.05,5.32,5.32,0,0,1,3.83,1.49A53.68,53.68,0,0,1,96,401.54l-.51-.2C90.56,399.28,88.64,397.18,88.64,394.55Z" style="fill:#fafafa"></path><path d="M83.45,395.59c0,5.3,5.08,8,9,9.66,2.94,1.24,5.17,1.65,6.7,2.91a107.1,107.1,0,0,0-5.32-17.61,8.4,8.4,0,0,0-4.72-1.23C86.94,389.37,83.45,390.73,83.45,395.59Zm3.38,0a3.17,3.17,0,0,1,3.2-3.15,5.32,5.32,0,0,1,3.83,1.49,44.32,44.32,0,0,1,2.35,9.42c-.83-.3-1.64-.58-2.56-1C88.75,400.32,86.83,398.23,86.83,395.59Z" style="fill:#ebebeb"></path><path d="M93.36,402.26a26,26,0,0,0,2.27,4.19,11.72,11.72,0,0,1,3.51,1.71,107.1,107.1,0,0,0-5.32-17.61,8.75,8.75,0,0,0-2.5-1v3a5.37,5.37,0,0,1,2.54,1.36,44.32,44.32,0,0,1,2.35,9.42c-.83-.3-1.64-.58-2.56-1Z" style="opacity:0.1"></path><path d="M145,387c0-3.78-2.5-7.56-7.5-10.45-10-5.77-26.21-5.77-36.2,0-5,2.89-7.5,6.67-7.5,10.45h0v5.56a25.6,25.6,0,0,0,25.6,25.6h0a25.6,25.6,0,0,0,25.6-25.6V387Z" style="fill:#fafafa"></path><path d="M119.42,372.43c6.8,0,13.19,1.52,18,4.3s7.38,6.39,7.38,10.25v5.56a25.38,25.38,0,0,1-50.75,0V387c0-3.86,2.62-7.5,7.39-10.25s11.19-4.3,18-4.3m0-.23c-6.55,0-13.11,1.45-18.1,4.33s-7.5,6.67-7.5,10.45v5.56a25.6,25.6,0,0,0,25.6,25.6h0a25.6,25.6,0,0,0,25.6-25.6V387c0-3.78-2.5-7.56-7.5-10.45s-11.55-4.33-18.1-4.33Z" style="fill:#e0e0e0"></path><path d="M137.52,376.53c-10-5.77-26.21-5.77-36.2,0s-10,15.13,0,20.9,26.2,5.78,36.2,0S147.52,382.3,137.52,376.53Zm-.78,19.55c-4.6,2.66-10.75,4.12-17.32,4.12s-12.72-1.46-17.32-4.12c-4.34-2.5-6.72-5.73-6.72-9.1s2.38-6.6,6.72-9.1c4.6-2.65,10.75-4.12,17.32-4.12s12.72,1.47,17.32,4.12c4.33,2.5,6.72,5.74,6.72,9.1S141.07,393.58,136.74,396.08Z" style="fill:#fff"></path><path d="M136.74,377.88c-4.6-2.66-10.75-4.12-17.32-4.12s-12.72,1.46-17.33,4.12c-4.33,2.5-6.71,5.73-6.71,9.1a7.5,7.5,0,0,0,.56,2.82c.94-2.33,3-4.5,6.15-6.29a35.36,35.36,0,0,1,17.33-4.12c6.57,0,12.72,1.47,17.32,4.12,3.11,1.79,5.21,4,6.15,6.29a7.32,7.32,0,0,0,.57-2.82C143.46,383.62,141.07,380.38,136.74,377.88Z" style="fill:#ebebeb"></path><path d="M119.42,373.76c-6.57,0-12.72,1.46-17.33,4.12-4.33,2.5-6.71,5.73-6.71,9.1a7.5,7.5,0,0,0,.56,2.82c.94-2.33,3-4.5,6.15-6.29a35.36,35.36,0,0,1,17.33-4.12l1.22,0c-1.58,0-4.91-.81-3.79-3s4.14-2.65,6.32-2.51C121.94,373.82,120.69,373.76,119.42,373.76Z" style="fill:#e0e0e0"></path><path d="M143.46,387c0-3-1.86-5.84-5.29-8.19,1.61,1.86.71,5.19-2.76,4h0c.46.23.92.47,1.36.72,3.11,1.79,5.21,4,6.15,6.29A7.32,7.32,0,0,0,143.46,387Z" style="fill:#e0e0e0"></path><path d="M136.74,383.51c-4.6-2.65-10.75-4.12-17.32-4.12a35.36,35.36,0,0,0-17.33,4.12c-3.1,1.79-5.21,4-6.15,6.29,1,2.32,3,4.49,6.16,6.28,4.6,2.66,10.75,4.12,17.32,4.12s12.72-1.46,17.32-4.12c3.11-1.79,5.21-4,6.15-6.28C142,387.47,139.85,385.3,136.74,383.51Z" style="fill:#BA68C8"></path><path d="M136.74,383.51c-4.6-2.65-10.75-4.12-17.32-4.12a35.36,35.36,0,0,0-17.33,4.12c-3.1,1.79-5.21,4-6.15,6.29,1,2.32,3,4.49,6.16,6.28,4.6,2.66,10.75,4.12,17.32,4.12s12.72-1.46,17.32-4.12c3.11-1.79,5.21-4,6.15-6.28C142,387.47,139.85,385.3,136.74,383.51Z" style="opacity:0.4"></path><path d="M102.09,383.51c-3.1,1.79-5.21,4-6.15,6.29,1,2.32,3,4.49,6.16,6.28a32.33,32.33,0,0,0,12.23,3.82c-1.39-.74-3.21-2.21-4.73-2.53-.53-.11-1-.27-1.56-.42a3.83,3.83,0,0,1-2.21-1.25,2.19,2.19,0,0,1-.45-2.15,2.8,2.8,0,0,1,1-1.12c1.42-1,3.21-1.43,4.69-2.38a1.93,1.93,0,0,0,.89-1,1.68,1.68,0,0,0-.35-1.39c-.29-.41-.67-.73-1-1.13a1.72,1.72,0,0,1-.41-1.38,1.38,1.38,0,0,1,.47-.78,7,7,0,0,1,3.17-1.2,2.31,2.31,0,0,0,1.53-1.11c.33-.56,0-1.25.29-1.82a2.18,2.18,0,0,1,.78-.76A33.59,33.59,0,0,0,102.09,383.51Zm-.26,7.53a.42.42,0,0,1-.38,0c-.11-.06-.11-.16,0-.22a.42.42,0,0,1,.38,0A.12.12,0,0,1,101.83,391Zm2.41,3.47a1.31,1.31,0,0,1-1.19,0c-.33-.19-.33-.49,0-.68a1.31,1.31,0,0,1,1.19,0A.36.36,0,0,1,104.24,394.51Zm.51-1.55a.42.42,0,0,1-.38,0c-.11-.06-.11-.16,0-.22a.42.42,0,0,1,.38,0C104.86,392.8,104.86,392.9,104.75,393Zm.24-2.52a2.06,2.06,0,0,1-1.87,0,.58.58,0,0,1,0-1.09,2.06,2.06,0,0,1,1.87,0A.58.58,0,0,1,105,390.44Zm4-6.16a.72.72,0,0,1,.61,0,.19.19,0,0,1,0,.35.66.66,0,0,1-.61,0C108.8,384.54,108.8,384.38,109,384.28Zm-2.75,2.18a.58.58,0,0,1,0-1.09,2.08,2.08,0,0,1,1.88,0,.58.58,0,0,1,0,1.09A2.08,2.08,0,0,1,106.22,386.46Zm1.24,4.1a.72.72,0,0,1-.61,0,.19.19,0,0,1,0-.35.66.66,0,0,1,.61,0C107.63,390.31,107.63,390.46,107.46,390.56Zm2.71-2.69c.6.35.6.9,0,1.24a2.37,2.37,0,0,1-2.14,0c-.59-.34-.59-.89,0-1.24A2.37,2.37,0,0,1,110.17,387.87Zm2-5.09a.42.42,0,0,1-.38,0c-.11-.06-.11-.16,0-.22a.42.42,0,0,1,.38,0C112.25,382.62,112.25,382.72,112.14,382.78Z" style="fill:#BA68C8;opacity:0.30000000000000004"></path><path d="M136.74,383.51a27.09,27.09,0,0,0-3.38-1.62,5.36,5.36,0,0,0-.94.29,1.7,1.7,0,0,0-.85.61c-.46.72.1,1.66.71,2.26a16.85,16.85,0,0,0,3.07,2.3,6.31,6.31,0,0,1,1.61,1.23,1.84,1.84,0,0,1,.37,1.9,3.77,3.77,0,0,1-1,1.08,1.5,1.5,0,0,0-.62,1.29,2.33,2.33,0,0,0,.63.94,1,1,0,0,1,.3,1c-.15.35-.58.46-1,.52a29.47,29.47,0,0,0-4.22.49,2.62,2.62,0,0,0-1.36.8c-.29.38-.41.86-.72,1.22-.69.82-2,.64-3,.7a10.12,10.12,0,0,0-3.9,1.27l-.6.31a34,34,0,0,0,14.91-4.06c3.11-1.79,5.21-4,6.15-6.28C142,387.47,139.85,385.3,136.74,383.51Zm-2,.8a2.08,2.08,0,0,1-1.88,0,.58.58,0,0,1,0-1.09,2.08,2.08,0,0,1,1.88,0A.58.58,0,0,1,134.79,384.31Zm1.57,1.54a1.14,1.14,0,0,1-1,0c-.29-.17-.29-.43,0-.6a1.14,1.14,0,0,1,1,0A.32.32,0,0,1,136.36,385.85Zm-3.85,11.47a1.25,1.25,0,0,1-1.16,0c-.32-.18-.32-.48,0-.67a1.31,1.31,0,0,1,1.16,0C132.83,396.84,132.83,397.14,132.51,397.32Zm1.4-.61a.79.79,0,0,1-.67,0,.21.21,0,0,1,0-.39.79.79,0,0,1,.67,0A.21.21,0,0,1,133.91,396.71Zm4.85-6.4a.66.66,0,0,1,.55,0,.17.17,0,0,1,0,.32.59.59,0,0,1-.55,0A.17.17,0,0,1,138.76,390.31Zm.8,3.09a2.65,2.65,0,0,1-2.45,0,.74.74,0,0,1,0-1.41,2.71,2.71,0,0,1,2.45,0A.74.74,0,0,1,139.56,393.4Zm.87-4.53a1.46,1.46,0,0,1-1.35,0,.41.41,0,0,1,0-.78,1.53,1.53,0,0,1,1.35,0A.41.41,0,0,1,140.43,388.87Zm1.4.4a.64.64,0,0,1-.54,0,.17.17,0,0,1,0-.32.57.57,0,0,1,.54,0C142,389,142,389.18,141.83,389.27Z" style="fill:#BA68C8;opacity:0.30000000000000004"></path><path d="M116,379.53a33.49,33.49,0,0,0-13.94,4c-3.1,1.79-5.21,4-6.15,6.29,1,2.32,3,4.49,6.16,6.28a26.33,26.33,0,0,0,3.7,1.76c-2.54-1.46-5.1-3.65-5.11-6.58C100.67,385.45,107.71,380.44,116,379.53Z" style="opacity:0.4"></path></g></g><g id="freepik--tea-spoon--inject-84"><path id="freepik--shadow--inject-84" d="M122.5,432.16s0,0,0-.06v0s0,0,0-.05l0,0,0-.05,0,0-.1-.07h0L90.57,414.32a4.45,4.45,0,0,0,.82-2.29,1.27,1.27,0,0,0,0-.2v0h0c0-1-.79-2.14-2.45-3.29C85.47,406.13,77.47,404,74.07,406a2.39,2.39,0,0,0-1.27,2.81h0a9.32,9.32,0,0,0,2.63,4.44l0,0,.32.33,0,0,.39.38a12.51,12.51,0,0,0,3.06,2.14,8.8,8.8,0,0,0,1,.42,10.75,10.75,0,0,0,1.67.45,13.82,13.82,0,0,0,2.59.22,7.94,7.94,0,0,0,4.14-1.15l30.19,18.2c1,.55,3.63-.85,3.64-1.65v-.48Z" style="opacity:0.1"></path><g id="freepik--tea-spoon--inject-84"><path d="M84.53,416.07c3.77,0,6.87-2.61,6.87-5.44l-18.6-3a10.29,10.29,0,0,0,3.41,5.21A11.25,11.25,0,0,0,84.53,416.07Z" style="fill:#ebebeb"></path><path d="M84.53,416.07c3.77,0,6.87-2.61,6.87-5.44l-18.6-3a10.29,10.29,0,0,0,3.41,5.21A11.25,11.25,0,0,0,84.53,416.07Z" style="opacity:0.15"></path><path d="M90.46,411.05c0,2-2.39,4.55-6.16,4.54a13.33,13.33,0,0,1-9.52-4.24,17.7,17.7,0,0,0,1.43,1.49,11.25,11.25,0,0,0,8.32,3.23c3.77,0,6.87-2.61,6.87-5.44l-1-.16C90.45,410.68,90.45,410.88,90.46,411.05Z" style="opacity:0.15"></path><path d="M89,407.35c-3.48-2.4-11.48-4.5-14.88-2.53s.23,6.58,4.37,8.59,7.94,1.75,10.74.13S92.39,409.71,89,407.35Z" style="fill:#e6e6e6"></path><path d="M77.77,404.24a22.4,22.4,0,0,1,11.06,3.27c1.62,1.11,2.41,2.2,2.37,3.25s-.77,1.83-2.12,2.61a9.67,9.67,0,0,1-4.86,1.26,13,13,0,0,1-5.69-1.4c-3.08-1.49-5.54-4.2-5.61-6.18A2.21,2.21,0,0,1,74.16,405a7.3,7.3,0,0,1,3.61-.75m0-.2a7.46,7.46,0,0,0-3.7.78c-3.41,2,.23,6.58,4.37,8.59a13.26,13.26,0,0,0,5.78,1.42,9.87,9.87,0,0,0,5-1.29c2.8-1.61,3.21-3.83-.23-6.19A22.77,22.77,0,0,0,77.77,404Z" style="fill:#e0e0e0"></path><path d="M87,407.84c-3.39-2.25-10.48-4.39-12.91-2.73S75.62,411,79.49,413s7,1.82,9,.45S90.34,410.08,87,407.84Z" style="fill:#f0f0f0"></path><path d="M83.18,407c-2.4-1.6-7.43-3.11-9.16-1.93s1.11,4.2,3.85,5.57,4.94,1.29,6.36.32S85.56,408.61,83.18,407Z" style="fill:#fafafa"></path><path d="M122.28,430.67,90.13,412.9a9.92,9.92,0,0,1-2.06,1.18v.48l30.79,18.56c1,.55,3.63-.85,3.64-1.65V431A.38.38,0,0,0,122.28,430.67Z" style="fill:#e0e0e0"></path><path d="M122.28,430.67,90.13,412.9a9.42,9.42,0,0,1-2.06,1.18v.48l30.79,18.56c1,.55,3.63-.85,3.64-1.65V431A.38.38,0,0,0,122.28,430.67Z" style="opacity:0.25"></path><path d="M118.86,432.65c1.1.63,4.52-1.34,3.42-2L90.13,412.9a9.78,9.78,0,0,1-2.06,1.18Z" style="fill:#f0f0f0"></path><path d="M90.32,413.4l28.85,15.86c2.19,1.2,3.53,1.75,2.13,2.55-1.63.95-2,.53-2,.53a3.54,3.54,0,0,0,1.53-.53c.82-.52.11-1.23-1.5-2S90.32,413.4,90.32,413.4Z" style="fill:#fafafa"></path></g></g></g></g><g id="freepik--Character--inject-84"><g id="freepik--character--inject-84"><g id="freepik--Top--inject-84"><path d="M236.84,138.31a8.12,8.12,0,0,0,3.07,0c3.83-.78,3.14-3.28,3.11-6.05s2.13-4.67,4.82-4.92c-1.71.16-2.72,2.13-2.61,3.84s1,3.27,1.59,4.88a15.91,15.91,0,0,1-6,18.33c-3.39,2.2-6.81,4.14-8.59,8.05a8.07,8.07,0,0,0,1.17,8.72c1.45,1.53,6.54,3.52,7.3.27.4-1.72-1.29-3.35-1.35-5.13a5.52,5.52,0,0,1,1.88-4.55,16.51,16.51,0,0,1,5.44-2.39c2-.62,5-1.51,6.11-3.44.75-1.32.49-4.42-1.34-4.9,3.11.82,3.93,5,2.53,7.28-1.95,3.25-7.66,4.35-5.9,8.94a15.42,15.42,0,0,0,2.86,4.11,8.31,8.31,0,0,1,2.21,4.42c.2,2.37-1.47,4.57-3.54,5.74a16.94,16.94,0,0,0-3.29,1.89c-1.69,1.56-1.92,4.15-1.65,6.44a36.36,36.36,0,0,1-.3,12.44,20.28,20.28,0,0,1-6.42,11c-6.07,5.23-17.95,5.64-25.79,4s-14.92-5.73-21.68-10c-.72-.46-1.44-.93-2.15-1.42-8.12-5.61-11.71-15.27-23.55-13.29-5.24.88-10.29,4.63-15.74,2.79-5-1.68-10.22-2.41-14.17-6.26-3.51-3.42-5.33-8.75-3.89-13.43.46-1.5,1.23-2.94,1.22-4.5,0-3.41-2.87-5.05-5.48-6.58-2.45-1.44-5.25-3.55-4.75-6.78a5.64,5.64,0,0,1,.92-2.17,6.81,6.81,0,0,1,1.34-1.54,20,20,0,0,1,2.58-1.5c.75-.45,1.9-1.33,1.93-2.32a1.68,1.68,0,0,0-1.78-1.69c1.51-.23,3.31.71,3.42,2.23.16,2.24-3.12,3.62-2.9,5.86.32,3.42,5,2.82,7,1.71,5-2.73,5.24-8.87,2.65-13.33-1.48-2.53-3.5-4.7-5-7.21a21,21,0,0,1-2.23-16.08c3.61-13.38,17.79-16.16,29.82-17.11,12.72-1,26.2,1.67,36.27-2.53,5.61-2.34,6.6-6.88,6.07-10.51a11.87,11.87,0,0,0-1.81-4.4c-1.85-2.83-3-4.86-2.67-8.41a11.3,11.3,0,0,1,4.09-7.85c3.5-2.84,8-4.11,12.07-6s8.23-4.67,9.52-9a5.64,5.64,0,0,0,.27-2.23c-.31-3-3.61-4.73-6.46-5.85a24.18,24.18,0,0,1,9.34,2.75,10.78,10.78,0,0,1,5.47,7.73c.56,5.22-3.47,9.42-4.67,14.24-1.33,5.32,2.56,10,6.05,13.66,6,6.29,11.78,10.89,12.85,20.1a21.13,21.13,0,0,1-.32,7.81,14.82,14.82,0,0,1-3.23,6.07,47.71,47.71,0,0,1-5.37,4.66,13.76,13.76,0,0,0-4.37,5.51c-.82,2.23-.53,5,1.24,6.59A5.78,5.78,0,0,0,236.84,138.31Z" style="fill:#BA68C8"></path><path d="M236.84,138.31a8.12,8.12,0,0,0,3.07,0c3.83-.78,3.14-3.28,3.11-6.05s2.13-4.67,4.82-4.92c-1.71.16-2.72,2.13-2.61,3.84s1,3.27,1.59,4.88a15.91,15.91,0,0,1-6,18.33c-3.39,2.2-6.81,4.14-8.59,8.05a8.07,8.07,0,0,0,1.17,8.72c1.45,1.53,6.54,3.52,7.3.27.4-1.72-1.29-3.35-1.35-5.13a5.52,5.52,0,0,1,1.88-4.55,16.51,16.51,0,0,1,5.44-2.39c2-.62,5-1.51,6.11-3.44.75-1.32.49-4.42-1.34-4.9,3.11.82,3.93,5,2.53,7.28-1.95,3.25-7.66,4.35-5.9,8.94a15.42,15.42,0,0,0,2.86,4.11,8.31,8.31,0,0,1,2.21,4.42c.2,2.37-1.47,4.57-3.54,5.74a16.94,16.94,0,0,0-3.29,1.89c-1.69,1.56-1.92,4.15-1.65,6.44a36.36,36.36,0,0,1-.3,12.44,20.28,20.28,0,0,1-6.42,11c-6.07,5.23-17.95,5.64-25.79,4s-14.92-5.73-21.68-10c-.72-.46-1.44-.93-2.15-1.42-8.12-5.61-11.71-15.27-23.55-13.29-5.24.88-10.29,4.63-15.74,2.79-5-1.68-10.22-2.41-14.17-6.26-3.51-3.42-5.33-8.75-3.89-13.43.46-1.5,1.23-2.94,1.22-4.5,0-3.41-2.87-5.05-5.48-6.58-2.45-1.44-5.25-3.55-4.75-6.78a5.64,5.64,0,0,1,.92-2.17,6.81,6.81,0,0,1,1.34-1.54,20,20,0,0,1,2.58-1.5c.75-.45,1.9-1.33,1.93-2.32a1.68,1.68,0,0,0-1.78-1.69c1.51-.23,3.31.71,3.42,2.23.16,2.24-3.12,3.62-2.9,5.86.32,3.42,5,2.82,7,1.71,5-2.73,5.24-8.87,2.65-13.33-1.48-2.53-3.5-4.7-5-7.21a21,21,0,0,1-2.23-16.08c3.61-13.38,17.79-16.16,29.82-17.11,12.72-1,26.2,1.67,36.27-2.53,5.61-2.34,6.6-6.88,6.07-10.51a11.87,11.87,0,0,0-1.81-4.4c-1.85-2.83-3-4.86-2.67-8.41a11.3,11.3,0,0,1,4.09-7.85c3.5-2.84,8-4.11,12.07-6s8.23-4.67,9.52-9a5.64,5.64,0,0,0,.27-2.23c-.31-3-3.61-4.73-6.46-5.85a24.18,24.18,0,0,1,9.34,2.75,10.78,10.78,0,0,1,5.47,7.73c.56,5.22-3.47,9.42-4.67,14.24-1.33,5.32,2.56,10,6.05,13.66,6,6.29,11.78,10.89,12.85,20.1a21.13,21.13,0,0,1-.32,7.81,14.82,14.82,0,0,1-3.23,6.07,47.71,47.71,0,0,1-5.37,4.66,13.76,13.76,0,0,0-4.37,5.51c-.82,2.23-.53,5,1.24,6.59A5.78,5.78,0,0,0,236.84,138.31Z" style="fill:#fff;opacity:0.6000000000000001"></path><path d="M201.66,205.83c4.49,0,8.93.82,13.4,1.15a22.81,22.81,0,0,0,9.9-1c3.12-1.22,5.86-3.83,6.45-7.12.37-2.11-.14-4.25-.36-6.38s-.05-4.49,1.4-6.06c1.16-1.26,2.91-1.76,4.4-2.63s3.27-2.29,2.73-3.92a11.87,11.87,0,0,1-1.4,1c-4.71,3.38-12.5-3.61-14.11-7.75A13.19,13.19,0,0,1,227.31,159c3-2.78,7.22-4.06,9.89-7.14,2.32-2.67,3.14-6.32,3.55-9.84-.81,4.11-5.65,6.67-9.71,5.66-7.3-1.8-9.28-10.15-6.79-16.4,1.79-4.51,5.12-8.2,7.8-12.24s4.8-8.92,3.69-13.64c-1.05-4.47-4.73-7.78-8.37-10.56s-7.61-5.51-9.7-9.59-1.4-10,2.71-12.06a11.33,11.33,0,0,0-9.65,11c.05,3.07,1.39,6,1.53,9.08.33,6.86-5.5,12.76-12,15s-13.57,1.63-20.43,1.28c-8.66-.43-17.71-.35-25.51,3.43s-14,12.3-12.36,20.82c.7,3.7,2.73,7,3.73,10.64a16.71,16.71,0,0,1-.95,11.89,12.84,12.84,0,0,1-9.41,7,1.66,1.66,0,0,0-1,.37c-.7.75.48,1.74,1.31,2.34,2.25,1.6,2.71,4.74,2.54,7.49s-.77,5.6.08,8.22c1.21,3.7,5,5.93,8.64,7.25,6.2,2.24,12.87,2.88,19.18,4.81s12.6,5.62,15.17,11.69c2.08,4.9,3.36,6.4,8,3.45A22.74,22.74,0,0,1,201.66,205.83Z" style="fill:#BA68C8"></path><path d="M201.66,205.83c4.49,0,8.93.82,13.4,1.15a22.81,22.81,0,0,0,9.9-1c3.12-1.22,5.86-3.83,6.45-7.12.37-2.11-.14-4.25-.36-6.38s-.05-4.49,1.4-6.06c1.16-1.26,2.91-1.76,4.4-2.63s3.27-2.29,2.73-3.92a11.87,11.87,0,0,1-1.4,1c-4.71,3.38-12.5-3.61-14.11-7.75A13.19,13.19,0,0,1,227.31,159c3-2.78,7.22-4.06,9.89-7.14,2.32-2.67,3.14-6.32,3.55-9.84-.81,4.11-5.65,6.67-9.71,5.66-7.3-1.8-9.28-10.15-6.79-16.4,1.79-4.51,5.12-8.2,7.8-12.24s4.8-8.92,3.69-13.64c-1.05-4.47-4.73-7.78-8.37-10.56s-7.61-5.51-9.7-9.59-1.4-10,2.71-12.06a11.33,11.33,0,0,0-9.65,11c.05,3.07,1.39,6,1.53,9.08.33,6.86-5.5,12.76-12,15s-13.57,1.63-20.43,1.28c-8.66-.43-17.71-.35-25.51,3.43s-14,12.3-12.36,20.82c.7,3.7,2.73,7,3.73,10.64a16.71,16.71,0,0,1-.95,11.89,12.84,12.84,0,0,1-9.41,7,1.66,1.66,0,0,0-1,.37c-.7.75.48,1.74,1.31,2.34,2.25,1.6,2.71,4.74,2.54,7.49s-.77,5.6.08,8.22c1.21,3.7,5,5.93,8.64,7.25,6.2,2.24,12.87,2.88,19.18,4.81s12.6,5.62,15.17,11.69c2.08,4.9,3.36,6.4,8,3.45A22.74,22.74,0,0,1,201.66,205.83Z" style="fill:#fff;opacity:0.30000000000000004"></path><path d="M203.81,200.63a22.06,22.06,0,0,0,8.53,0c3.69-.91,6.36-2.42,7.65-6.22.85-2.51,1.08-5.24,2.16-7.66s3.44-4.62,6.08-4.3a38.78,38.78,0,0,1-7.94-4.43,13,13,0,0,1-5-7.38c-.82-4,.93-8.1,3.64-11.1,2.55-2.83,7.19-4,8.05-7.72-5.36.91-12.16-4.29-13-9.65-.94-5.7,2.86-10.95,6-15.79a86.32,86.32,0,0,0,6.07-11,21.46,21.46,0,0,0,2.13-6.68,14.4,14.4,0,0,0-4-11.91,46.37,46.37,0,0,0-9-6.9c2.08,1.33,1.91,7.35,1.62,9.38a16.89,16.89,0,0,1-3.82,8.44c-4,4.79-10.08,7.61-16.13,8.83-7.73,1.55-15.71.86-23.6.69-4.19-.08-8.94-.28-12.92,1a19,19,0,0,0-9.61,7c-3.17,4.08-2,12-.92,16.64,1.21,5.31,2.94,10.71,2.06,16.09-.47,2.88-1.67,5.6-2.24,8.46-1.38,6.88,1.12,14.23,5.82,19.43s11.39,8.37,18.3,9.57a59.7,59.7,0,0,0,8.55.76c2.12.06,4-.34,6,.32A95.32,95.32,0,0,0,203.81,200.63Z" style="fill:#BA68C8"></path><path d="M203.81,200.63a22.06,22.06,0,0,0,8.53,0c3.69-.91,6.36-2.42,7.65-6.22.85-2.51,1.08-5.24,2.16-7.66s3.44-4.62,6.08-4.3a38.78,38.78,0,0,1-7.94-4.43,13,13,0,0,1-5-7.38c-.82-4,.93-8.1,3.64-11.1,2.55-2.83,7.19-4,8.05-7.72-5.36.91-12.16-4.29-13-9.65-.94-5.7,2.86-10.95,6-15.79a86.32,86.32,0,0,0,6.07-11,21.46,21.46,0,0,0,2.13-6.68,14.4,14.4,0,0,0-4-11.91,46.37,46.37,0,0,0-9-6.9c2.08,1.33,1.91,7.35,1.62,9.38a16.89,16.89,0,0,1-3.82,8.44c-4,4.79-10.08,7.61-16.13,8.83-7.73,1.55-15.71.86-23.6.69-4.19-.08-8.94-.28-12.92,1a19,19,0,0,0-9.61,7c-3.17,4.08-2,12-.92,16.64,1.21,5.31,2.94,10.71,2.06,16.09-.47,2.88-1.67,5.6-2.24,8.46-1.38,6.88,1.12,14.23,5.82,19.43s11.39,8.37,18.3,9.57a59.7,59.7,0,0,0,8.55.76c2.12.06,4-.34,6,.32A95.32,95.32,0,0,0,203.81,200.63Z" style="fill:#fff;opacity:0.1"></path><path d="M215.51,124.26a25.6,25.6,0,0,0,3.06-4.25c2.16-3.85,2.9-8.83.67-12.64-.36,4.25-2.77,7.41-6,10-4.34,3.48-9.31,5-14.76,5.73-7.65,1.06-15.38.24-23,1.1a26.45,26.45,0,0,0-11.8,3.86A14.55,14.55,0,0,0,157,138.22c-.45,4.15,1.71,8.65,5.55,10.3a24.61,24.61,0,0,0,5.67,1.23,28.16,28.16,0,0,1,16,8.8,20,20,0,0,1,5.07,9.71c.4,2.33.26,4.72.7,7,.83,4.39,4.12,8.5,8.52,9.3a7,7,0,0,1,8-8.69,3.92,3.92,0,0,0,1.7.09,2.78,2.78,0,0,0,1.54-1.78,15,15,0,0,0,.58-9.84c-.83-2.9-2.13-6.63.88-8.78a8,8,0,0,1,5.84-1c-1.54-1.65-4-2-6.09-2.75-3.71-1.25-7.14-4.09-7.94-7.92a11.21,11.21,0,0,1,1.59-7.79,29.71,29.71,0,0,1,5.27-6.16C211.77,128.09,213.76,126.26,215.51,124.26Z" style="fill:#BA68C8"></path><path d="M196.89,181.54a16.82,16.82,0,0,0,7.81-2.33,11.46,11.46,0,0,0,4.71-6.92,18.54,18.54,0,0,0,.38-4.21,11.78,11.78,0,0,0-.46-3.55,14.09,14.09,0,0,0-1.64-3.09L203.57,155a2.75,2.75,0,0,0-1-1,1.89,1.89,0,0,0-1.78.14,5.62,5.62,0,0,0-1.35,1.27,19.54,19.54,0,0,0-1.1-8.1,11.68,11.68,0,0,0-5.46-6.21,14.64,14.64,0,0,0-7.21-1.18,19.89,19.89,0,0,0-8.84,2.26c-9.2,5.14-6.41,17.37-3.32,25.47a21.07,21.07,0,0,0,2,4.14,19,19,0,0,0,2.27,2.71A23,23,0,0,0,196.89,181.54Z" style="opacity:0.30000000000000004"></path><path d="M125.12,116.3A16.42,16.42,0,0,0,123.23,127a19.8,19.8,0,0,1-3.87-5.88,10.2,10.2,0,0,1,1.89-10c2.1-2.41,5.18-3.65,7.93-5.28a11.47,11.47,0,0,0,3.14-2.52,5.11,5.11,0,0,0,1.2-3.76A3.31,3.31,0,0,0,131,96.71a5.22,5.22,0,0,1,4.8,2.93c1.74,3.46-.15,6.64-2.85,8.9C130.07,111,127,112.92,125.12,116.3Z" style="fill:#BA68C8;opacity:0.2"></path><path d="M191.2,82.84a11.69,11.69,0,0,0,2.26,3.68,17.07,17.07,0,0,1,2.48,3.54,5,5,0,0,1,.19,4.19,6.2,6.2,0,0,1-2.56,2.46,3.9,3.9,0,0,0,.26-4.89,7.31,7.31,0,0,0-2.2-1.73c-1.12-.67-2.24-1.33-3.3-2.09a7.74,7.74,0,0,1-2.67-2.93,6.05,6.05,0,0,1,.12-4.86,12,12,0,0,1,3.05-3.92A8.65,8.65,0,0,0,191,73.91a2.38,2.38,0,0,0-.46-3,3.06,3.06,0,0,1,2.09,3.22c-.07,1.49-.89,2.77-1.36,4.14A7.2,7.2,0,0,0,191.2,82.84Z" style="fill:#BA68C8;opacity:0.2"></path><path d="M233.79,50.71a13.74,13.74,0,0,0-3.44-2.39c-2.19-1.16-4.66-2.08-6.23-4.09a7.58,7.58,0,0,1-1.43-5.69,6.8,6.8,0,0,1,4.8-5.88,6.36,6.36,0,0,1,5.06.83,4,4,0,0,1,2,3.56c-.13-1-1.35-1.46-2.35-1.37a4,4,0,0,0-3.37,2.4c-.75,1.94.63,3.92,2.08,5.12,2.93,2.43,6.2,4.21,7,8.28a7.9,7.9,0,0,1-2.18,7.29c.43-.4.35-1.92.34-2.45a9.16,9.16,0,0,0-.45-2.54A7.27,7.27,0,0,0,233.79,50.71Z" style="fill:#BA68C8;opacity:0.2"></path><path d="M256.69,123.7c-1.39,2.44-4.69,3.34-5.93,5.86a6,6,0,0,0,.07,4.85,18,18,0,0,0,2.7,4.18c-.86-2.21-1.66-4.87-.29-6.81a6.54,6.54,0,0,1,2.37-1.85c2.12-1.11,4.45-2,6-3.82a7.2,7.2,0,0,0-3.12-11.53c-1.44-.5-3.43-.72-4.13-2.31a2.31,2.31,0,0,1,.21-2.38,4.71,4.71,0,0,0-1.67,2.73c-.32,1.19.43,2.59,1.16,3.58s2.14,1.75,2.73,3A5,5,0,0,1,256.69,123.7Z" style="fill:#BA68C8;opacity:0.2"></path><path d="M259.61,178.67c-.27,2.36-2.39,4-4.48,5.16-1.67.88-3.57,1.7-4.73,3.26a3.91,3.91,0,0,0-.87,2.65,5.76,5.76,0,0,0,.5,1.72c.23.5.71.91.92,1.39a2.53,2.53,0,0,1,.79-2.82,5,5,0,0,1,2.89-1.07c1.05-.09,2.1,0,3.14-.14,2.2-.24,5.07-1.24,6.34-3.16a6.19,6.19,0,0,0,.91-3.26,9.57,9.57,0,0,0-2.56-6.92c-.7-.69-1.5-1.26-2.16-2a4,4,0,0,1-1.21-2.59,2.75,2.75,0,0,1,1.36-2.37,3.58,3.58,0,0,0-3.09,4.91C258.11,175.32,259.86,176.46,259.61,178.67Z" style="fill:#BA68C8;opacity:0.2"></path><path d="M176.86,135.92c3.4-6.81,11.93-6.68,18.54-7,8.95-.86,20.49-4.14,23.07-13.95-3.26,9.31-14.3,12.16-23.16,13-5.83.38-12.5.28-16.9,4.79-2.61,2.6-3.29,6.62-2.53,10.08A12.48,12.48,0,0,1,176.86,135.92Zm7.36-10.26c-8.63.88-14.52,9.21-8.79,16.82C171.39,134.35,176.33,128.14,184.22,125.66Zm8.36,8.82c3.27.22,6.64.68,10,.18a23,23,0,0,0,9.3-3.59,27,27,0,0,1-9.39,2.83c-8.17.58-17.37-3.09-23.86,4.06a9.32,9.32,0,0,0-2.1,4.52C178.51,135.72,186.32,133.81,192.58,134.48ZM233.49,150c-9.24,4.69-20.58,1.72-28-4.92-5.84-4.9-13.71-8.41-21.44-6.94a10.36,10.36,0,0,0-6.41,4,10.46,10.46,0,0,1,6.5-3.52c7.51-1.09,15.08,2.42,20.7,7.21C212.44,152.55,224.41,155.52,233.49,150Zm-38.66-30.2a45.82,45.82,0,0,1-15.56,1.12c-5.26-.32-10.56-1.28-15.82-.17-7.44,1.64-11.16,8.2-9.22,15.46.7,3.52,1,7.2-.09,10.65a19.2,19.2,0,0,0-.13-3.39c-1-7.4-7.5-13.13-1.46-20.39-4.26,3.43-3.89,9.28-1.67,13.74a28.57,28.57,0,0,1,2.41,6.76,21.36,21.36,0,0,1,.24,6.39,10.92,10.92,0,0,0-2-6.15c-1.85-2.72-4.32-4.74-5.45-7.8.35,3.27,2.89,5.78,4.62,8.35a14.38,14.38,0,0,1,2.45,8.85,11.21,11.21,0,0,0,.39-2.76,15.53,15.53,0,0,0,.6-3.4c1.45-3.43,1.32-7.33.71-11-2.26-11.28,6.54-15.73,16.52-14.88C179.17,121.7,187.32,122.52,194.83,119.78Zm29.51,61.57c-4.4-.47-9.26-.36-13.07,2.19-3.42,2.24-5.15,6.21-5.72,10.1,1-3.7,2.76-7.44,6.13-9.45,3.73-2.3,8.31-2.31,12.55-1.87,7.5,1.27,16.5,1.84,18-7.73C240,183.6,231.64,182.63,224.34,181.35Zm-3.26,3.87c-4.63-1.32-10.5-.37-13.08,4.1a12.3,12.3,0,0,0-1.5,4.53c1.62-7,7.8-9.5,14.33-7.66,5.76,1.66,12.85,5,18.35.79C233.23,190.46,227,186.89,221.08,185.22Z" style="opacity:0.15"></path><path d="M233,264.23a34.66,34.66,0,0,0-3.66-39.37c-8.63-10.09-29.65-25.3-29.65-25.3-5.42-.6-13.1-2-27,3.25-14.12,5.35-27.65,11.33-33.78,14,0,0-4.4,16.51-1.69,33.91,1.25,8,2.66,23.54,11.79,47.71,2.83,7.52,1.06,12,4,35.35a170.74,170.74,0,0,0,3.43,18.94c6.71-1.49,15.8-13.43,15.8-13.43s17.73,8.62,43.53,3.93c29.32-5.34,37.6-37,37.6-37l-12.46-15.63Z" style="fill:#f0f0f0"></path><g id="freepik--top--inject-84"><path d="M201.21,183.7c-2.91-1.16-2.18-5.47-4.24-7.33a2.2,2.2,0,0,0-3.7,1.1c-.59,1.8.12,3.68.27,5.48a14.89,14.89,0,0,1-1,6.19c-1.46,4.18-2.35,9.33.83,13-.16-.18,1.12-2.64,1.22-2.88C196.81,194.09,199,188.88,201.21,183.7Z" style="fill:#f28f8f"></path><g id="freepik--Head--inject-84"><path d="M207,170c-3.71-4-8.28-1.09-10.84,2.8-2.24,3.42-3.77,0-2-4.12-4.28-13.4,4.9-11.71-.53-21.36-3.39-6-13.29-6.81-17.83-4.52-1-3.55-5.09-7.35-9.92-6.77-4.36.52-7.46,2.37-10.64,7.54-3.31,5.38-1.36,8-3.26,11.94-.73,1.51-2.82,4.62-3.81,8.67-4,16.45-.93,23.94,2.63,28,2.44,2.83,4.89,4.44,11.23,5.91L161,207.8c2,11.17,16.21,24.13,42.8,30.8-.4-14-8.4-27-12-34.62l2.31-19c.32,3.86,5,3.87,6.89,3.2C209.34,185.14,212.19,175.47,207,170Z" style="fill:#ffa8a7"></path><path d="M166,136c-5.54.55-9.53,5.11-11.56,10-1.11,2.53-.76,5.24-1.4,7.91s-2.52,4.78-3.42,7.37A55.22,55.22,0,0,0,146.66,177c-.2,5.32.74,10.95,4.22,15.17-3.75-4-4.88-9.82-4.8-15.19a53.88,53.88,0,0,1,2.8-16c.9-2.53,2.72-4.74,3.47-7.26s.32-5.48,1.51-8c2.2-4.92,6.41-9.52,12.1-9.77Z" style="fill:#ffa8a7"></path><path d="M166,136c-5.54.55-9.53,5.11-11.56,10-1.11,2.53-.76,5.24-1.4,7.91s-2.52,4.78-3.42,7.37A55.22,55.22,0,0,0,146.66,177c-.2,5.32.74,10.95,4.22,15.17-3.75-4-4.88-9.82-4.8-15.19a53.88,53.88,0,0,1,2.8-16c.9-2.53,2.72-4.74,3.47-7.26s.32-5.48,1.51-8c2.2-4.92,6.41-9.52,12.1-9.77Z" style="fill:#fff;opacity:0.4"></path><path d="M162.11,198.11c12,1.23,23.84-.71,30.42-11.13,0,0,.4,8.14-12.53,13.43-8.36,3.42-18.31,1.45-18.31,1.45Z" style="fill:#f28f8f"></path><path d="M175.71,163.42s.2.93,2.24,2a7.13,7.13,0,0,0,7.09-.72,7.94,7.94,0,0,0-4.46-1.9A9.77,9.77,0,0,0,175.71,163.42Z" style="fill:#BA68C8;opacity:0.5"></path><path d="M155.82,156.55s0,.85,1.61,2.12a6.28,6.28,0,0,0,6.28.6,7,7,0,0,0-3.55-2.42A8.57,8.57,0,0,0,155.82,156.55Z" style="fill:#BA68C8;opacity:0.5"></path><path d="M185.39,165.07s0,.07,0,.11a3.54,3.54,0,0,1-1,1.49,5.22,5.22,0,0,1-2.16,1.31,5.29,5.29,0,0,1-4.32-.58,5.36,5.36,0,0,1-2.18-2.8c-.08-.24-.32-.73-.21-1,.24-.5.8.15,1.06.34a8.14,8.14,0,0,0,3.56,1.46,8.23,8.23,0,0,0,4.17-.45C184.61,164.82,185.42,164.4,185.39,165.07Z" style="fill:#37474f"></path><path d="M163.87,159.63l0,.1a3.07,3.07,0,0,1-1.16,1.1,4.58,4.58,0,0,1-2.09.75,4.64,4.64,0,0,1-3.63-1.24,4.72,4.72,0,0,1-1.39-2.79c0-.22-.15-.69,0-.88.29-.4.66.26.85.47a7.2,7.2,0,0,0,6.49,2.2C163.24,159.28,164,159.06,163.87,159.63Z" style="fill:#37474f"></path><path d="M190.76,175.83c-.62,2.44-4,3.71-7.46,2.82s-5.83-3.59-5.21-6,4-3.7,7.46-2.81S191.38,173.39,190.76,175.83Z" style="fill:#f28f8f"></path><path d="M172.41,180.08,163,181.34a4.67,4.67,0,0,0,5.22,4.23A5,5,0,0,0,172.41,180.08Z" style="fill:#b16668"></path><path d="M180,155.29l5.7,4.39a3.46,3.46,0,0,0-.53-5A3.78,3.78,0,0,0,180,155.29Z" style="fill:#263238"></path><path d="M164.3,150.42l-7.1,1.2a3.45,3.45,0,0,1,2.81-4.15A3.79,3.79,0,0,1,164.3,150.42Z" style="fill:#263238"></path><polygon points="170.57 159.62 165.99 175.27 158.02 170.22 170.57 159.62" style="fill:#f28f8f"></polygon><path d="M172,182.68a6.48,6.48,0,0,0-6.46,2.42,4.64,4.64,0,0,0,2.7.47A4.86,4.86,0,0,0,172,182.68Z" style="fill:#f28f8f"></path><path d="M155.18,166c-.91,2.35-4.38,3.2-7.74,1.89s-5.35-4.28-4.43-6.63,4.38-3.19,7.74-1.88S156.1,163.69,155.18,166Z" style="fill:#f28f8f"></path></g><path d="M198.59,167.54c.27.51.54,1,.82,1.49.36.64.69,1.28,1.06,1.91.18.31.37.61.57.89s.67.72.65.84c-.19,1.63-1.05,3.69-.47,6.31s1.15,3.14-1.26,6.94c-1.62,2.56-4.65,5.74-6,9.08s-2,6.7,1.35,9.95,6.9,3.29,10.14,6.77c2.44,2.63,4.68,4.79,15.47,18.49,7.93,10.06,11.75,20.56,21.88,24.34a34.1,34.1,0,0,0,16.41,1.64,10.41,10.41,0,0,0,4.19-1.48c3.09-2.14,4.57-13.58-4.94-24.75-3.88-4.55-7-6.26-13.86-11-5.58-3.86-9-6.71-16.75-12.57-7.07-5.31-10.68-8.75-12.31-11.84a22.77,22.77,0,0,1-2.3-10.88c.35-4.37,1-4.37-1.33-9-1.66-3-2.4-7.08-3.28-9.56a27.86,27.86,0,0,0-3.77-6.82,32.44,32.44,0,0,1-3-4.39,2,2,0,0,0-.81-1,1.14,1.14,0,0,0-.92,0,2.25,2.25,0,0,0-.73.61,6,6,0,0,0-.47-1.55,11.66,11.66,0,0,1-.48-1.33c-.09-.34-.34-.7-.69-.69a.9.9,0,0,0-.54.29,4.32,4.32,0,0,0-1.24,2.28,12.72,12.72,0,0,0,.16,3.53,1.82,1.82,0,0,1,0,.52,2.66,2.66,0,0,1-.34.59,2.82,2.82,0,0,0-.23,2.1,33.91,33.91,0,0,0,1.39,3.63c.27.74.42,1.52.67,2.26A17.2,17.2,0,0,0,198.59,167.54Z" style="fill:#ffa8a7"></path><path d="M202.53,179.46c-.14.56-.33,1.11-.49,1.68l-.15.46a22,22,0,0,0-.56-3.27c-.39-1.92.29-3.56.58-5.46a1.22,1.22,0,0,0-.24-.66,26.26,26.26,0,0,1-4.51-8.88c-.59-2-2.34-4-1.4-6.14-1.17,2,.65,4.29,1.09,6.28a26.1,26.1,0,0,0,4.18,9l.21.26c-.35,1.95-.94,3.9-.56,5.91a18.37,18.37,0,0,1,.55,3.12c-.77,4.22-4.62,7.2-6.55,11-2.2,3.82-3.23,9.14.66,12.22-4-4.27-2.08-8.78.7-13a8.19,8.19,0,0,0-.65,6,8.45,8.45,0,0,0,1.77,2.95,8.75,8.75,0,0,0,2.75,2,28.65,28.65,0,0,1-2.43-2.52,11.24,11.24,0,0,1-1.35-2.79,10.44,10.44,0,0,1,.14-6c1.52-2.25,3.26-4.4,4.47-6.37a8.81,8.81,0,0,0,1.08-2.86,11,11,0,0,0,1.24-2.8,7.7,7.7,0,0,0,.17-3.57A25.55,25.55,0,0,1,202.53,179.46Zm2.05-8c-.09-.4-.18-.79-.24-1.19s-.06-.8-.08-1.19a11.52,11.52,0,0,1,.05-1.18,7.63,7.63,0,0,1,.18-1.13l0-.2-.15-.19a9.21,9.21,0,0,1-1.48-2.6,9.84,9.84,0,0,1-.43-1.43,9.64,9.64,0,0,1-.2-1.46v-.19l-.09-.11a15.53,15.53,0,0,1-1.7-2.32,9.77,9.77,0,0,1-.95-2.93,1.84,1.84,0,0,0,0,.52,4.32,4.32,0,0,0,.2.88,10.25,10.25,0,0,0,1.41,3.31,2.25,2.25,0,0,1,.68,1.78,7.41,7.41,0,0,0,1.42,3.84,3.67,3.67,0,0,1,.52.82,2.85,2.85,0,0,1,.11,1.27A6.1,6.1,0,0,0,204.58,171.46Zm-7.78-13.31c.21.42.48.81.68,1.24.4.88.47,1.87.8,2.78a5,5,0,0,0,1.83,2.37.71.71,0,0,1,.13.12c.21.27.07.84.06,1.15,0,.46,0,.92,0,1.38a9.6,9.6,0,0,0,1.16,4.2c-.15-.56-.33-1.1-.43-1.65a15.89,15.89,0,0,1-.26-1.66,12.91,12.91,0,0,1-.06-1.64,9.6,9.6,0,0,1,.2-1.58l.07-.28-.23-.19a7.67,7.67,0,0,1-1.82-2.18,11,11,0,0,1-.92-2.5,4.24,4.24,0,0,0-.18-.5,3.7,3.7,0,0,0-.25-.43,12.1,12.1,0,0,1-1.22-2c.09.21.08.48.16.71A4.82,4.82,0,0,0,196.8,158.15Z" style="fill:#ffa8a7"></path><path d="M202.53,179.46c-.14.56-.33,1.11-.49,1.68l-.15.46a22,22,0,0,0-.56-3.27c-.39-1.92.29-3.56.58-5.46a1.22,1.22,0,0,0-.24-.66,26.26,26.26,0,0,1-4.51-8.88c-.59-2-2.34-4-1.4-6.14-1.17,2,.65,4.29,1.09,6.28a26.1,26.1,0,0,0,4.18,9l.21.26c-.35,1.95-.94,3.9-.56,5.91a18.37,18.37,0,0,1,.55,3.12c-.77,4.22-4.62,7.2-6.55,11-2.2,3.82-3.23,9.14.66,12.22-4-4.27-2.08-8.78.7-13a8.19,8.19,0,0,0-.65,6,8.45,8.45,0,0,0,1.77,2.95,8.75,8.75,0,0,0,2.75,2,28.65,28.65,0,0,1-2.43-2.52,11.24,11.24,0,0,1-1.35-2.79,10.44,10.44,0,0,1,.14-6c1.52-2.25,3.26-4.4,4.47-6.37a8.81,8.81,0,0,0,1.08-2.86,11,11,0,0,0,1.24-2.8,7.7,7.7,0,0,0,.17-3.57A25.55,25.55,0,0,1,202.53,179.46Zm2.05-8c-.09-.4-.18-.79-.24-1.19s-.06-.8-.08-1.19a11.52,11.52,0,0,1,.05-1.18,7.63,7.63,0,0,1,.18-1.13l0-.2-.15-.19a9.21,9.21,0,0,1-1.48-2.6,9.84,9.84,0,0,1-.43-1.43,9.64,9.64,0,0,1-.2-1.46v-.19l-.09-.11a15.53,15.53,0,0,1-1.7-2.32,9.77,9.77,0,0,1-.95-2.93,1.84,1.84,0,0,0,0,.52,4.32,4.32,0,0,0,.2.88,10.25,10.25,0,0,0,1.41,3.31,2.25,2.25,0,0,1,.68,1.78,7.41,7.41,0,0,0,1.42,3.84,3.67,3.67,0,0,1,.52.82,2.85,2.85,0,0,1,.11,1.27A6.1,6.1,0,0,0,204.58,171.46Zm-7.78-13.31c.21.42.48.81.68,1.24.4.88.47,1.87.8,2.78a5,5,0,0,0,1.83,2.37.71.71,0,0,1,.13.12c.21.27.07.84.06,1.15,0,.46,0,.92,0,1.38a9.6,9.6,0,0,0,1.16,4.2c-.15-.56-.33-1.1-.43-1.65a15.89,15.89,0,0,1-.26-1.66,12.91,12.91,0,0,1-.06-1.64,9.6,9.6,0,0,1,.2-1.58l.07-.28-.23-.19a7.67,7.67,0,0,1-1.82-2.18,11,11,0,0,1-.92-2.5,4.24,4.24,0,0,0-.18-.5,3.7,3.7,0,0,0-.25-.43,12.1,12.1,0,0,1-1.22-2c.09.21.08.48.16.71A4.82,4.82,0,0,0,196.8,158.15Z" style="fill:#fff;opacity:0.4"></path></g></g><g id="freepik--Bottom--inject-84"><path d="M371.42,432.27,345.2,410.62l20.13-22.54c12.72,15.05,25.07,29.41,32.57,34.59,0,0-2.53,15.61-10.9,17.58S373.85,436.78,371.42,432.27Z" style="fill:#ffa8a7"></path><path d="M378.78,446.38a13.6,13.6,0,0,0,3.65,3.83c1.47,1.14,8.94,1.32,12.33,2.55s4.25,2.05,8.47,4c4.68,2.16,8.83,5.84,21.43,2.86,12.77-3,18.9-8.71,22.27-13.67a13.62,13.62,0,0,0,1.94-6.13s-2.1-6.95-6.17-6.19S378.78,446.38,378.78,446.38Z" style="fill:#263238"></path><path d="M394.36,417.57c1.26.28,3.09,2.19,4.08,3,3.32,2.67,8,4.11,12,5.23,19.25,5.34,29.71-1.75,36.31,9.26,1.71,3.18.75,9.46-12.21,18.22-6.62,4.47-19.74,6.39-25.47,4.07s-9.35-5.19-13.77-6.73-12.86-1.47-16.56-4.22c-2.17-1.62-3.6-4.1-4.83-6.46-1-1.94-4-8.68-4-8.68,4.5,3.75,8,1.57,10.56,1.66s5.37,1.17,8,1.83c-2.91-2.65-5.53-3.83-4.88-6.46.62-2.46.55-2.95,4.39-6.52S393.24,417.33,394.36,417.57Z" style="fill:#BA68C8"></path><path d="M394.36,417.57c1.26.28,3.09,2.19,4.08,3,3.32,2.67,8,4.11,12,5.23,19.25,5.34,29.71-1.75,36.31,9.26,1.71,3.18.75,9.46-12.21,18.22-6.62,4.47-19.74,6.39-25.47,4.07s-9.35-5.19-13.77-6.73-12.86-1.47-16.56-4.22c-2.17-1.62-3.6-4.1-4.83-6.46-1-1.94-4-8.68-4-8.68,4.5,3.75,8,1.57,10.56,1.66s5.37,1.17,8,1.83c-2.91-2.65-5.53-3.83-4.88-6.46.62-2.46.55-2.95,4.39-6.52S393.24,417.33,394.36,417.57Z" style="opacity:0.4"></path><path d="M434.58,453.26c-6.62,4.47-19.74,6.39-25.47,4.07a52,52,0,0,1-5.52-2.64c.39.11.79.26,1.12.34.75.17,1.51.32,2.26.44,2.92.48,6.12.69,8.93-.36,2.51-.94,8.79-3.07,9.15-6.35.21-1.86-1.51-3.55-3.54-4.41-.86-.36-3.19-1-3.19-1a29.16,29.16,0,0,1,4.07-8.3c3.48-4.55,4.16-4.33,4.16-4.33a12.56,12.56,0,0,0,4.18.45,10.57,10.57,0,0,0,4.29-1.49,7,7,0,0,0,1.05-1.15c4.49.5,7.95,1.92,10.72,6.54C448.5,438.22,447.54,444.5,434.58,453.26Z" style="opacity:0.30000000000000004"></path><path d="M410.48,425.78A65.45,65.45,0,0,0,426,428.07c4.88,2.14,4.62,3.7,2,3.74s-13.13-4.15-21.83-7.33C407.63,425,409.09,425.4,410.48,425.78Z" style="fill:#37474f"></path><path d="M378.35,435.53c-2.46.12-4.33.52-6.56-.35-1.41-.49-2.55-3.43-2.66-4.8l2.45,2c3.87,1.15,6.39.42,8.92.51s5.37,1.17,7.95,1.83c8.35,2.57,11.06,4.58,19,6.06s13.44.25,13.81,1.42-.69,3.38-7.13,3.36-17-3.6-22-5.95S381.8,435.36,378.35,435.53Z" style="fill:#37474f"></path><path d="M418.84,443.93a.74.74,0,0,0,.25-.39c1.54-5.54,3.16-8.44,8.37-12.29a.8.8,0,0,0-.95-1.29c-5.5,4.07-7.32,7.25-9,13.15a.8.8,0,0,0,.55,1A.82.82,0,0,0,418.84,443.93Z" style="fill:#ebebeb"></path><path d="M412.23,442.46a.9.9,0,0,0,.25-.38c1.75-5.72,3.61-8.84,9.11-12.93a.8.8,0,0,0,.17-1.15.83.83,0,0,0-1.15-.17c-5.79,4.32-7.85,7.7-9.7,13.77a.82.82,0,0,0,1.32.86Z" style="fill:#ebebeb"></path><path d="M404.86,442.1a.87.87,0,0,0,.28-.42c1.93-6.32,4.17-9.94,10.23-14.45a.9.9,0,1,0-1.08-1.45c-6.37,4.74-8.84,8.68-10.88,15.37a.9.9,0,0,0,.6,1.13A.89.89,0,0,0,404.86,442.1Z" style="fill:#ebebeb"></path><path d="M398.66,440.61a.93.93,0,0,0,.27-.42c1.88-6.19,4-9.7,10-14.13a.89.89,0,1,0-1.06-1.42c-6.25,4.64-8.64,8.47-10.63,15a.88.88,0,0,0,.59,1.11A.9.9,0,0,0,398.66,440.61Z" style="fill:#ebebeb"></path><path d="M392.69,437.88a.82.82,0,0,0,.27-.41c1.89-6.19,4.05-9.7,10-14.13a.89.89,0,0,0,.18-1.24.87.87,0,0,0-1.24-.18c-6.25,4.65-8.64,8.47-10.64,15a.9.9,0,0,0,.6,1.11A.88.88,0,0,0,392.69,437.88Z" style="fill:#ebebeb"></path><path d="M339.88,356.53c-8.83-9.44-14.68-14.35-25.51-18.91C301.06,332,221.25,304.24,214.86,302v78.33a61.14,61.14,0,0,0,7.95,1.93c34.93,6,68.18,2.67,86.89,4,7.7,9.76,13.09,12.93,24.67,20.77,16.64,11.27,19.86,13.33,19.86,13.33s16.91-7.71,21.18-22.32C375.41,398,360.09,378.15,339.88,356.53Z" style="fill:#455a64"></path><path d="M345.67,415c5.54-2.08,22.07-13,23.17-25.41l7.21,8.42s1.32,4.8-8.13,14.22-13.12,8.86-13.12,8.86Z" style="fill:#37474f"></path><path d="M286.23,327.16c-28.29-10.15-67-23.62-71.37-25.13v78.33a61.14,61.14,0,0,0,7.95,1.93c26.07,4.45,51.21,3.74,70.06,3.64Z" style="fill:#37474f"></path><path d="M228.54,383.18c11.38-7.39,17.08-24.62,20.29-33.39l-1.64-1.26-32.33,31.83a61.14,61.14,0,0,0,7.95,1.93Q225.69,382.77,228.54,383.18Z" style="fill:#263238"></path><path d="M327,433.83c-.42-3.34-8.91-7.93-15.34-12.11-10.3-6.71-16.89-11-19.88-17.84s-4.48-10.71-5-15.49-1.37-10.87-2.85-26.67c-.19-2-31.4,3.59-30.54,6,2.9,8.05,8.55,26.81,8.85,28.6a18.49,18.49,0,0,1-.32,6.5c-.54,3.79-.74,7.75,1,12s4.92,4.59,8.63,7.68,4.49,3.16,7.27,7.9c3,5.07,7.57,13.12,21.61,16.17,7.36,1.6,17.45.12,24.18-4.07C328.07,440.28,327.15,435.08,327,433.83Z" style="fill:#ffa8a7"></path><path d="M262.32,414.86a13.76,13.76,0,0,0,1.43,5.2c.77,1.74,7.39,5.51,9.84,8.25s2.83,3.9,5.68,7.69c3.16,4.2,5.11,9.51,17.87,12.92,12.93,3.46,21.18,1.31,26.61-1.52a13.86,13.86,0,0,0,4.7-4.58s1.47-7.25-2.56-8.54S262.32,414.86,262.32,414.86Z" style="fill:#263238"></path><path d="M290.23,396.51c1,.85,1.72,3.46,2.22,4.65,1.7,4,5.18,7.53,8.29,10.51,14.72,14.09,27.53,12.78,28.15,25.86,0,3.68-3.89,8.86-19.77,10.46-8.11.82-20.82-3.79-24.85-8.63s-5.89-9.19-9.12-12.71-10.83-7.53-12.83-11.79c-1.17-2.5-1.26-5.42-1.22-8.13,0-2.23.58-9.74.58-9.74,2.24,5.55,6.46,5.3,8.69,6.6s4.26,3.64,6.27,5.48c-1.34-3.78-3.12-6.11-1.26-8.15s1.92-2.39,7.09-3.74S289.34,395.75,290.23,396.51Z" style="fill:#BA68C8"></path><path d="M290.23,396.51c1,.85,1.72,3.46,2.22,4.65,1.7,4,5.18,7.53,8.29,10.51,14.72,14.09,27.53,12.78,28.15,25.86,0,3.68-3.89,8.86-19.77,10.46-8.11.82-20.82-3.79-24.85-8.63s-5.89-9.19-9.12-12.71-10.83-7.53-12.83-11.79c-1.17-2.5-1.26-5.42-1.22-8.13,0-2.23.58-9.74.58-9.74,2.24,5.55,6.46,5.3,8.69,6.6s4.26,3.64,6.27,5.48c-1.34-3.78-3.12-6.11-1.26-8.15s1.92-2.39,7.09-3.74S289.34,395.75,290.23,396.51Z" style="opacity:0.4"></path><path d="M309.12,448c-8.11.82-20.82-3.79-24.85-8.63a58.77,58.77,0,0,1-3.68-5c.3.28.58.61.85.84.59.51,1.19,1,1.81,1.49,2.39,1.84,5.16,3.57,8.2,4,2.71.36,9.38,1.48,11.29-1.29,1.07-1.57.36-3.92-1.05-5.67-.6-.74-2.38-2.46-2.38-2.46a29.54,29.54,0,0,1,7.67-5.49c5.32-2.41,5.83-1.88,5.83-1.88a12.77,12.77,0,0,0,3.54,2.41,10.56,10.56,0,0,0,4.57.73,6.32,6.32,0,0,0,1.5-.52c3.79,2.62,6.21,5.57,6.47,11.06C328.89,441.21,325,446.39,309.12,448Z" style="opacity:0.30000000000000004"></path><path d="M300.74,411.67a67.34,67.34,0,0,0,12.84,9.55c3.35,4.28,2.37,5.56,0,4.34s-9.79-10.07-16.08-17.13C298.58,409.57,299.68,410.66,300.74,411.67Z" style="fill:#37474f"></path><path d="M267.17,404.91c-2.26-1.08-4.13-1.63-5.72-3.48-.69-2.83-.46-4.58.76-5.12l.4,2.51c2.92,2.9,5.53,3.47,7.76,4.77s4.26,3.64,6.27,5.48c6.25,6.34,7.71,9.45,14.13,14.62s12,6.72,11.73,7.94-2.26,2.71-8-.42-13.57-11.46-16.9-16S270.36,406.42,267.17,404.91Z" style="fill:#37474f"></path><path d="M299.49,432a.81.81,0,0,0,.41-.23c4.06-4.23,6.92-6.06,13.46-7a.82.82,0,0,0-.23-1.62c-6.91,1-10.09,3-14.41,7.48a.82.82,0,0,0,0,1.16A.81.81,0,0,0,299.49,432Z" style="fill:#ebebeb"></path><path d="M294.26,427.5a.87.87,0,0,0,.41-.22c4.33-4.3,7.51-6.2,14.42-7.22a.81.81,0,0,0,.71-.95.84.84,0,0,0-.95-.7c-7.28,1.08-10.77,3.12-15.36,7.68a.84.84,0,0,0,0,1.18A.85.85,0,0,0,294.26,427.5Z" style="fill:#ebebeb"></path><path d="M287.82,423.62a1,1,0,0,0,.45-.25c4.78-4.74,8.55-6.91,16.17-8a.93.93,0,0,0,.77-1,.92.92,0,0,0-1-.78c-8,1.19-12.13,3.53-17.19,8.55a.93.93,0,0,0,0,1.31A1,1,0,0,0,287.82,423.62Z" style="fill:#ebebeb"></path><path d="M283,419.28a1,1,0,0,0,.45-.25c4.68-4.65,8.31-6.76,15.79-7.86a.9.9,0,1,0-.26-1.79c-7.85,1.15-11.85,3.44-16.81,8.37a.9.9,0,0,0,0,1.28A.92.92,0,0,0,283,419.28Z" style="fill:#ebebeb"></path><path d="M278.92,414a.94.94,0,0,0,.45-.24c4.68-4.65,8.31-6.76,15.8-7.86a.92.92,0,0,0,.76-1,.91.91,0,0,0-1-.77c-7.86,1.16-11.85,3.45-16.81,8.37a.9.9,0,0,0,0,1.28A.92.92,0,0,0,278.92,414Z" style="fill:#ebebeb"></path><path d="M279.17,303.15c-2-27.86-10-39.69-18.67-43.44-8.54-4.07-23,.56-42,19-15.39,14.89-24.85,28.42-35.84,48.43-5.05,2.28-22.06,13.59-26.05,26a44.79,44.79,0,0,0,5.26,15.32c13.26,21.24,41.41,22.28,58.16,13,10.15-5.6,19.44-18.16,27.14-33,2.79,9,5.17,15.89,5.17,15.89a54,54,0,0,0,31.46-5.32S281.45,334.68,279.17,303.15Z" style="fill:#455a64"></path><path d="M256.84,364.6h1.1c-2.25-8.38-4.44-16.11-6.4-23-4.29-15.18-7.68-27.16-8.48-34.56a106.52,106.52,0,0,1-.5-14c.07-3.94.1-5.92-1-6.53-.84-.46-1.94.14-2.91.78-2.4,1.6-5.67,6.53-14.6,26.2-.61,1.34-1.23,2.74-1.87,4.16-7.68,17.2-17.21,38.55-35.11,38.55l-.8,0c-10.82-.38-18.28-5.33-22.33-14.71l-.79.89c4.24,9.49,12,14.49,23.09,14.88,19.11.67,29-21.41,36.91-39.16q.94-2.13,1.86-4.16c7.63-16.79,11.62-24,14.23-25.75,1.28-.85,1.69-.8,1.81-.73.56.3.52,2.75.47,5.59a107,107,0,0,0,.51,14.08c.81,7.49,4.21,19.51,8.52,34.73C252.46,348.7,254.62,356.34,256.84,364.6Z" style="opacity:0.2"></path><path d="M250.69,362.2c5.72,1.49,25,2.18,33.08-7.34l1.05,11s-1.68,4.69-14.83,6.94-15.84-.3-15.84-.3Z" style="fill:#37474f"></path><path d="M247.19,348.53c-7.7,14.8-17,27.36-27.15,33-14.83,8.2-39.26,8.48-53.4-6.89,6.74,5.78,22,9.53,40,3.3,19-6.57,25.32-20.53,25-36.4-.38-18.74,3.84-53.32,9.22-59.61a26.91,26.91,0,0,0-1.35,3.91c-6,25.51-1,32.86,3.77,49.43C244.64,340.2,246,344.68,247.19,348.53Z" style="opacity:0.2"></path></g><g id="freepik--Arm--inject-84"><g id="freepik--arm--inject-84"><path d="M259.84,271c3-1.17,5.64-2.33,9-3.8a12.43,12.43,0,0,0,2.86-1.63c1-.88,1.28-2.63.36-3a8.13,8.13,0,0,0-2.9-.11,39,39,0,0,0-6.33,1.12c1.93-.79,3.64-1.51,5.31-2.37a2.28,2.28,0,0,0,1.3-3c-.31-1-1.67-1.34-4.44-.91-.48-.79-2-1.79-4.8-1.24-.41-.78-2.11-1.29-4.12-.92s-3.28.72-5.25,1.19c-2.5.6-4,1.23-6.49,2-4.62,1.46-9,3.4-13.52,5.16-7.77,3-12.59,4.25-16.29,5.85-4.65,2-39.22,16-39.22,16s-6.78,3-13.64,15c-3.74,6.52-7.67,14-.84,17.42s21.74-1.27,31.94-7c13.35-7.5,21.49-13.71,33.31-22.93,2.11-1.64,4-2.77,6.75-2.83a20,20,0,0,0,6.28-.77,25.85,25.85,0,0,0,4.15-1.79,41.35,41.35,0,0,0,6.42-4.86c.77-.67,1.49-1.39,2.28-2A28.42,28.42,0,0,1,259.84,271Z" style="fill:#ffa8a7"></path><path d="M265,257.32c-1.35.44-2.68.89-4,1.35s-2.66.93-4,1.43l-3.93,1.54-3.94,1.57a36.5,36.5,0,0,1,3.73-2c1.28-.63,2.58-1.18,3.91-1.69s2.68-.94,4.05-1.3A32.66,32.66,0,0,1,265,257.32Z" style="fill:#f28f8f"></path><path d="M260.23,256.08c-1.38.35-2.72.78-4.07,1.21l-4,1.36-4,1.36c-1.34.44-2.69.89-4,1.3,1.26-.66,2.56-1.23,3.87-1.78s2.64-1,4-1.51,2.7-.88,4.08-1.22A23,23,0,0,1,260.23,256.08Z" style="fill:#f28f8f"></path><path d="M233.67,284c-3.17-1.16-4.49-4.63-5.74-2.64s-1,3.56-8.86,10.46c-2.69,2.37-7.9,6.67-12.1,10.21,6.46-4.34,12.55-9.08,19.13-14.21h0c1.95-1.51,3.07-2.15,4-2.35l.72-.21.29-.06a5.21,5.21,0,0,1,.57-.1l.27,0a8.47,8.47,0,0,1,.88-.07l1,0H234a25.15,25.15,0,0,0,3.26-.28h0A11,11,0,0,1,233.67,284Z" style="fill:#f28f8f"></path><path d="M268.17,261.2a2.24,2.24,0,0,0,1.34-2.79,2.18,2.18,0,0,1-1.36,1.93c-1.38.61-5.1,1.74-8,2.85a16.67,16.67,0,0,0-4.54,2.65c.7-.24,5.71-1.91,7.22-2.27C264.79,262.78,266.5,262.06,268.17,261.2Z" style="fill:#f28f8f"></path></g><path d="M138.88,216.81c-19.63,8.55-17.78,23.15-11,40.91,7.22,19,27,57.17,32.07,59.46l19.7-25.54-19.75-45.18S147,219.38,138.88,216.81Z" style="fill:#ffa8a7"></path><path d="M174.76,280.55s-16.73,8.92-16.27,20.06c1.11-4.42,8.3-11.63,18.14-15.8Z" style="fill:#f28f8f"></path></g></g></g></svg>